ISO-10303-21;
HEADER;
FILE_DESCRIPTION (( 'STEP AP214' ),
    '1' );
FILE_NAME ('1010 led.STEP',
    '2025-12-08T13:22:07',
    ( '' ),
    ( '' ),
    'SwSTEP 2.0',
    'SolidWorks 2025',
    '' );
FILE_SCHEMA (( 'AUTOMOTIVE_DESIGN' ));
ENDSEC;

DATA;
#1 = DIRECTION ( 'NONE',  ( -1.000000000000000000, 0.000000000000000000, 2.168404344971008868E-16 ) ) ;
#2 = ORIENTED_EDGE ( 'NONE', *, *, #149, .T. ) ;
#3 =( GEOMETRIC_REPRESENTATION_CONTEXT ( 3 ) GLOBAL_UNCERTAINTY_ASSIGNED_CONTEXT ( ( #187 ) ) GLOBAL_UNIT_ASSIGNED_CONTEXT ( ( #146, #109, #65 ) ) REPRESENTATION_CONTEXT ( 'NONE', 'WORKASPACE' ) );
#4 = MECHANICAL_DESIGN_GEOMETRIC_PRESENTATION_REPRESENTATION (  '', ( #92 ), #32 ) ;
#5 =( LENGTH_UNIT ( ) NAMED_UNIT ( * ) SI_UNIT ( .MILLI., .METRE. ) );
#6 = EDGE_CURVE ( 'NONE', #112, #31, #154, .T. ) ;
#7 = ORIENTED_EDGE ( 'NONE', *, *, #13, .T. ) ;
#8 = CARTESIAN_POINT ( 'NONE',  ( 0.4999999999999998890, 0.8499999999999999778, -0.5000000000000000000 ) ) ;
#9 = EDGE_CURVE ( 'NONE', #98, #112, #133, .T. ) ;
#10 = ORIENTED_EDGE ( 'NONE', *, *, #46, .T. ) ;
#11 = UNCERTAINTY_MEASURE_WITH_UNIT (LENGTH_MEASURE( 1.000000000000000082E-05 ), #205, 'distance_accuracy_value', 'NONE');
#12 = CARTESIAN_POINT ( 'NONE',  ( 0.000000000000000000, 0.000000000000000000, 0.000000000000000000 ) ) ;
#13 = EDGE_CURVE ( 'NONE', #265, #153, #125, .T. ) ;
#14 = DIRECTION ( 'NONE',  ( -1.000000000000000000, -0.000000000000000000, -0.000000000000000000 ) ) ;
#15 = PRESENTATION_LAYER_ASSIGNMENT (  '', '', ( #186 ) ) ;
#16 = PLANE ( 'NONE',  #43 ) ;
#17 =( NAMED_UNIT ( * ) PLANE_ANGLE_UNIT ( ) SI_UNIT ( $, .RADIAN. ) );
#18 = PRODUCT_DEFINITION_SHAPE ( 'NONE', 'NONE',  #185 ) ;
#19 =( GEOMETRIC_REPRESENTATION_CONTEXT ( 3 ) GLOBAL_UNCERTAINTY_ASSIGNED_CONTEXT ( ( #118 ) ) GLOBAL_UNIT_ASSIGNED_CONTEXT ( ( #58, #270, #266 ) ) REPRESENTATION_CONTEXT ( 'NONE', 'WORKASPACE' ) );
#20 = EDGE_CURVE ( 'NONE', #31, #52, #33, .T. ) ;
#21 = DIRECTION ( 'NONE',  ( 0.000000000000000000, -0.000000000000000000, 1.000000000000000000 ) ) ;
#22 = AXIS2_PLACEMENT_3D ( 'NONE', #23, #1, #66 ) ;
#23 = CARTESIAN_POINT ( 'NONE',  ( 0.4999999999999998890, 0.8499999999999999778, -0.5000000000000000000 ) ) ;
#24 = SURFACE_SIDE_STYLE ('',( #51 ) ) ;
#25 = ORIENTED_EDGE ( 'NONE', *, *, #9, .T. ) ;
#26 = DIRECTION ( 'NONE',  ( -0.000000000000000000, -1.000000000000000000, -0.000000000000000000 ) ) ;
#27 = ORIENTED_EDGE ( 'NONE', *, *, #176, .F. ) ;
#28 =( NAMED_UNIT ( * ) SI_UNIT ( $, .STERADIAN. ) SOLID_ANGLE_UNIT ( ) );
#29 = MANIFOLD_SOLID_BREP ( 'Boss-Extrude1', #230 ) ;
#30 = ADVANCED_FACE ( 'NONE', ( #182 ), #78, .F. ) ;
#31 = VERTEX_POINT ( 'NONE', #165 ) ;
#32 =( GEOMETRIC_REPRESENTATION_CONTEXT ( 3 ) GLOBAL_UNCERTAINTY_ASSIGNED_CONTEXT ( ( #93 ) ) GLOBAL_UNIT_ASSIGNED_CONTEXT ( ( #223, #17, #170 ) ) REPRESENTATION_CONTEXT ( 'NONE', 'WORKASPACE' ) );
#33 = LINE ( 'NONE', #245, #274 ) ;
#34 = ADVANCED_FACE ( 'NONE', ( #243 ), #16, .F. ) ;
#35 = VECTOR ( 'NONE', #172, 1000.000000000000000 ) ;
#36 = PRESENTATION_STYLE_ASSIGNMENT (( #222 ) ) ;
#37 = EDGE_CURVE ( 'NONE', #177, #212, #166, .T. ) ;
#38 = SURFACE_STYLE_USAGE ( .BOTH. , #86 ) ;
#39 = VECTOR ( 'NONE', #252, 1000.000000000000000 ) ;
#40 = FACE_OUTER_BOUND ( 'NONE', #134, .T. ) ;
#41 = SURFACE_STYLE_FILL_AREA ( #224 ) ;
#42 = LINE ( 'NONE', #83, #39 ) ;
#43 = AXIS2_PLACEMENT_3D ( 'NONE', #104, #189, #207 ) ;
#44 = DIRECTION ( 'NONE',  ( 0.000000000000000000, 0.000000000000000000, 1.000000000000000000 ) ) ;
#45 = PRESENTATION_STYLE_ASSIGNMENT (( #233 ) ) ;
#46 = EDGE_CURVE ( 'NONE', #212, #31, #273, .T. ) ;
#47 = FILL_AREA_STYLE_COLOUR ( '', #144 ) ;
#48 = DIRECTION ( 'NONE',  ( -0.000000000000000000, -1.000000000000000000, -0.000000000000000000 ) ) ;
#49 =( GEOMETRIC_REPRESENTATION_CONTEXT ( 3 ) GLOBAL_UNCERTAINTY_ASSIGNED_CONTEXT ( ( #147 ) ) GLOBAL_UNIT_ASSIGNED_CONTEXT ( ( #5, #213, #178 ) ) REPRESENTATION_CONTEXT ( 'NONE', 'WORKASPACE' ) );
#50 = VECTOR ( 'NONE', #137, 1000.000000000000000 ) ;
#51 = SURFACE_STYLE_FILL_AREA ( #150 ) ;
#52 = VERTEX_POINT ( 'NONE', #85 ) ;
#53 = ADVANCED_FACE ( 'NONE', ( #60 ), #275, .F. ) ;
#54 =( NAMED_UNIT ( * ) SI_UNIT ( $, .STERADIAN. ) SOLID_ANGLE_UNIT ( ) );
#55 = CARTESIAN_POINT ( 'NONE',  ( -0.4999999999999998890, 0.8499999999999999778, 0.5000000000000000000 ) ) ;
#56 =( NAMED_UNIT ( * ) SI_UNIT ( $, .STERADIAN. ) SOLID_ANGLE_UNIT ( ) );
#57 = EDGE_CURVE ( 'NONE', #112, #265, #42, .T. ) ;
#58 =( LENGTH_UNIT ( ) NAMED_UNIT ( * ) SI_UNIT ( .MILLI., .METRE. ) );
#59 = STYLED_ITEM ( 'NONE', ( #89 ), #159 ) ;
#60 = FACE_OUTER_BOUND ( 'NONE', #242, .T. ) ;
#61 = PRODUCT ( '1010 led', '1010 led', '', ( #271 ) ) ;
#62 = PLANE ( 'NONE',  #99 ) ;
#63 = AXIS2_PLACEMENT_3D ( 'NONE', #12, #198, #77 ) ;
#64 = DIRECTION ( 'NONE',  ( -0.000000000000000000, -1.000000000000000000, -0.000000000000000000 ) ) ;
#65 =( NAMED_UNIT ( * ) SI_UNIT ( $, .STERADIAN. ) SOLID_ANGLE_UNIT ( ) );
#66 = DIRECTION ( 'NONE',  ( 2.168404344971008868E-16, 0.000000000000000000, 1.000000000000000000 ) ) ;
#67 = ORIENTED_EDGE ( 'NONE', *, *, #240, .F. ) ;
#68 =( GEOMETRIC_REPRESENTATION_CONTEXT ( 3 ) GLOBAL_UNCERTAINTY_ASSIGNED_CONTEXT ( ( #11 ) ) GLOBAL_UNIT_ASSIGNED_CONTEXT ( ( #205, #229, #107 ) ) REPRESENTATION_CONTEXT ( 'NONE', 'WORKASPACE' ) );
#69 = DIRECTION ( 'NONE',  ( 1.000000000000000000, 0.000000000000000000, -0.000000000000000000 ) ) ;
#70 = ORIENTED_EDGE ( 'NONE', *, *, #149, .F. ) ;
#71 = ORIENTED_EDGE ( 'NONE', *, *, #20, .T. ) ;
#72 = CARTESIAN_POINT ( 'NONE',  ( 0.5000000000000001110, 0.8499999999999999778, 0.5000000000000000000 ) ) ;
#73 = PRESENTATION_LAYER_ASSIGNMENT (  '', '', ( #87 ) ) ;
#74 = ORIENTED_EDGE ( 'NONE', *, *, #176, .T. ) ;
#75 =( NAMED_UNIT ( * ) PLANE_ANGLE_UNIT ( ) SI_UNIT ( $, .RADIAN. ) );
#76 = CARTESIAN_POINT ( 'NONE',  ( -0.4999999999999998890, 0.8499999999999999778, 0.5000000000000000000 ) ) ;
#77 = DIRECTION ( 'NONE',  ( 1.000000000000000000, 0.000000000000000000, 0.000000000000000000 ) ) ;
#78 = PLANE ( 'NONE',  #174 ) ;
#79 = MECHANICAL_DESIGN_GEOMETRIC_PRESENTATION_REPRESENTATION (  '', ( #184 ), #68 ) ;
#80 = SURFACE_STYLE_USAGE ( .BOTH. , #201 ) ;
#81 = MECHANICAL_DESIGN_GEOMETRIC_PRESENTATION_REPRESENTATION (  '', ( #59 ), #49 ) ;
#82 = AXIS2_PLACEMENT_3D ( 'NONE', #84, #168, #21 ) ;
#83 = CARTESIAN_POINT ( 'NONE',  ( -0.5000000000000001110, 0.8499999999999999778, -0.5000000000000000000 ) ) ;
#84 = CARTESIAN_POINT ( 'NONE',  ( 0.000000000000000000, 0.000000000000000000, 0.000000000000000000 ) ) ;
#85 = CARTESIAN_POINT ( 'NONE',  ( -0.4999999999999998890, 0.000000000000000000, 0.5000000000000000000 ) ) ;
#86 = SURFACE_SIDE_STYLE ('',( #41 ) ) ;
#87 = STYLED_ITEM ( 'NONE', ( #45 ), #227 ) ;
#88 = UNCERTAINTY_MEASURE_WITH_UNIT (LENGTH_MEASURE( 1.000000000000000082E-05 ), #192, 'distance_accuracy_value', 'NONE');
#89 = PRESENTATION_STYLE_ASSIGNMENT (( #152 ) ) ;
#90 = ORIENTED_EDGE ( 'NONE', *, *, #20, .F. ) ;
#91 = PRESENTATION_LAYER_ASSIGNMENT (  '', '', ( #59 ) ) ;
#92 = STYLED_ITEM ( 'NONE', ( #36 ), #34 ) ;
#93 = UNCERTAINTY_MEASURE_WITH_UNIT (LENGTH_MEASURE( 1.000000000000000082E-05 ), #223, 'distance_accuracy_value', 'NONE');
#94 = CARTESIAN_POINT ( 'NONE',  ( 0.4999999999999998890, 0.000000000000000000, -0.5000000000000000000 ) ) ;
#95 = CARTESIAN_POINT ( 'NONE',  ( -0.5000000000000001110, 0.8499999999999999778, -0.5000000000000000000 ) ) ;
#96 = ORIENTED_EDGE ( 'NONE', *, *, #102, .F. ) ;
#97 = LINE ( 'NONE', #195, #169 ) ;
#98 = VERTEX_POINT ( 'NONE', #255 ) ;
#99 = AXIS2_PLACEMENT_3D ( 'NONE', #261, #236, #211 ) ;
#100 = EDGE_LOOP ( 'NONE', ( #10, #151, #157, #2 ) ) ;
#101 = FILL_AREA_STYLE ('',( #220 ) ) ;
#102 = EDGE_CURVE ( 'NONE', #265, #52, #171, .T. ) ;
#103 = FILL_AREA_STYLE ('',( #162 ) ) ;
#104 = CARTESIAN_POINT ( 'NONE',  ( -0.5000000000000001110, 0.8499999999999999778, -0.5000000000000000000 ) ) ;
#105 = MECHANICAL_DESIGN_GEOMETRIC_PRESENTATION_REPRESENTATION (  '', ( #87 ), #139 ) ;
#106 = PRESENTATION_LAYER_ASSIGNMENT (  '', '', ( #269 ) ) ;
#107 =( NAMED_UNIT ( * ) SI_UNIT ( $, .STERADIAN. ) SOLID_ANGLE_UNIT ( ) );
#108 = PRESENTATION_STYLE_ASSIGNMENT (( #128 ) ) ;
#109 =( NAMED_UNIT ( * ) PLANE_ANGLE_UNIT ( ) SI_UNIT ( $, .RADIAN. ) );
#110 = CARTESIAN_POINT ( 'NONE',  ( 0.5000000000000001110, 0.000000000000000000, 0.5000000000000000000 ) ) ;
#111 = DIRECTION ( 'NONE',  ( -2.168404344971008868E-16, -0.000000000000000000, -1.000000000000000000 ) ) ;
#112 = VERTEX_POINT ( 'NONE', #210 ) ;
#113 = EDGE_LOOP ( 'NONE', ( #71, #96, #234, #217 ) ) ;
#114 = VECTOR ( 'NONE', #14, 1000.000000000000000 ) ;
#115 = PLANE ( 'NONE',  #22 ) ;
#116 = ORIENTED_EDGE ( 'NONE', *, *, #158, .T. ) ;
#117 = LINE ( 'NONE', #8, #35 ) ;
#118 = UNCERTAINTY_MEASURE_WITH_UNIT (LENGTH_MEASURE( 1.000000000000000082E-05 ), #58, 'distance_accuracy_value', 'NONE');
#119 = COLOUR_RGB ( '',0.05882352941176470507, 0.05882352941176470507, 0.05882352941176470507 ) ;
#120 =( LENGTH_UNIT ( ) NAMED_UNIT ( * ) SI_UNIT ( .MILLI., .METRE. ) );
#121 = FILL_AREA_STYLE_COLOUR ( '', #145 ) ;
#122 = DIRECTION ( 'NONE',  ( 2.168404344971008868E-16, 0.000000000000000000, 1.000000000000000000 ) ) ;
#123 = SURFACE_STYLE_FILL_AREA ( #101 ) ;
#124 =( GEOMETRIC_REPRESENTATION_CONTEXT ( 3 ) GLOBAL_UNCERTAINTY_ASSIGNED_CONTEXT ( ( #129 ) ) GLOBAL_UNIT_ASSIGNED_CONTEXT ( ( #199, #247, #56 ) ) REPRESENTATION_CONTEXT ( 'NONE', 'WORKASPACE' ) );
#125 = LINE ( 'NONE', #55, #50 ) ;
#126 = PRESENTATION_STYLE_ASSIGNMENT (( #38 ) ) ;
#127 = AXIS2_PLACEMENT_3D ( 'NONE', #95, #44, #69 ) ;
#128 = SURFACE_STYLE_USAGE ( .BOTH. , #148 ) ;
#129 = UNCERTAINTY_MEASURE_WITH_UNIT (LENGTH_MEASURE( 1.000000000000000082E-05 ), #199, 'distance_accuracy_value', 'NONE');
#130 = FILL_AREA_STYLE_COLOUR ( '', #215 ) ;
#131 = EDGE_LOOP ( 'NONE', ( #194, #70, #27, #116 ) ) ;
#132 = FILL_AREA_STYLE_COLOUR ( '', #119 ) ;
#133 = LINE ( 'NONE', #272, #114 ) ;
#134 = EDGE_LOOP ( 'NONE', ( #74, #25, #197, #7 ) ) ;
#135 = DIRECTION ( 'NONE',  ( 1.000000000000000000, 0.000000000000000000, 0.000000000000000000 ) ) ;
#136 = PRESENTATION_STYLE_ASSIGNMENT (( #268 ) ) ;
#137 = DIRECTION ( 'NONE',  ( 1.000000000000000000, 0.000000000000000000, 0.000000000000000000 ) ) ;
#138 = SURFACE_STYLE_FILL_AREA ( #103 ) ;
#139 =( GEOMETRIC_REPRESENTATION_CONTEXT ( 3 ) GLOBAL_UNCERTAINTY_ASSIGNED_CONTEXT ( ( #88 ) ) GLOBAL_UNIT_ASSIGNED_CONTEXT ( ( #192, #241, #28 ) ) REPRESENTATION_CONTEXT ( 'NONE', 'WORKASPACE' ) );
#140 = VECTOR ( 'NONE', #48, 1000.000000000000000 ) ;
#141 = DIRECTION ( 'NONE',  ( -1.000000000000000000, 0.000000000000000000, -0.000000000000000000 ) ) ;
#142 = SURFACE_STYLE_FILL_AREA ( #254 ) ;
#143 = ADVANCED_FACE ( 'NONE', ( #40 ), #62, .T. ) ;
#144 = COLOUR_RGB ( '',0.05882352941176470507, 0.05882352941176470507, 0.05882352941176470507 ) ;
#145 = COLOUR_RGB ( '',0.05882352941176470507, 0.05882352941176470507, 0.05882352941176470507 ) ;
#146 =( LENGTH_UNIT ( ) NAMED_UNIT ( * ) SI_UNIT ( .MILLI., .METRE. ) );
#147 = UNCERTAINTY_MEASURE_WITH_UNIT (LENGTH_MEASURE( 1.000000000000000082E-05 ), #5, 'distance_accuracy_value', 'NONE');
#148 = SURFACE_SIDE_STYLE ('',( #142 ) ) ;
#149 = EDGE_CURVE ( 'NONE', #98, #212, #117, .T. ) ;
#150 = FILL_AREA_STYLE ('',( #47 ) ) ;
#151 = ORIENTED_EDGE ( 'NONE', *, *, #6, .F. ) ;
#152 = SURFACE_STYLE_USAGE ( .BOTH. , #24 ) ;
#153 = VERTEX_POINT ( 'NONE', #72 ) ;
#154 = LINE ( 'NONE', #237, #140 ) ;
#155 = ADVANCED_BREP_SHAPE_REPRESENTATION ( '1010 led', ( #29, #63 ), #208 ) ;
#156 = EDGE_LOOP ( 'NONE', ( #179, #216, #263, #239 ) ) ;
#157 = ORIENTED_EDGE ( 'NONE', *, *, #9, .F. ) ;
#158 = EDGE_CURVE ( 'NONE', #153, #177, #97, .T. ) ;
#159 = ADVANCED_FACE ( 'NONE', ( #262 ), #258, .F. ) ;
#160 = DIRECTION ( 'NONE',  ( 0.000000000000000000, 0.000000000000000000, -1.000000000000000000 ) ) ;
#161 = APPLICATION_PROTOCOL_DEFINITION ( 'draft international standard', 'automotive_design', 1998, #235 ) ;
#162 = FILL_AREA_STYLE_COLOUR ( '', #204 ) ;
#163 = VECTOR ( 'NONE', #276, 1000.000000000000000 ) ;
#164 = PRESENTATION_STYLE_ASSIGNMENT (( #80 ) ) ;
#165 = CARTESIAN_POINT ( 'NONE',  ( -0.5000000000000001110, 0.000000000000000000, -0.5000000000000000000 ) ) ;
#166 = LINE ( 'NONE', #277, #163 ) ;
#167 = PRODUCT_RELATED_PRODUCT_CATEGORY ( 'part', '', ( #61 ) ) ;
#168 = DIRECTION ( 'NONE',  ( 0.000000000000000000, 1.000000000000000000, 0.000000000000000000 ) ) ;
#169 = VECTOR ( 'NONE', #26, 1000.000000000000000 ) ;
#170 =( NAMED_UNIT ( * ) SI_UNIT ( $, .STERADIAN. ) SOLID_ANGLE_UNIT ( ) );
#171 = LINE ( 'NONE', #256, #231 ) ;
#172 = DIRECTION ( 'NONE',  ( -0.000000000000000000, -1.000000000000000000, -0.000000000000000000 ) ) ;
#173 = FILL_AREA_STYLE ('',( #132 ) ) ;
#174 = AXIS2_PLACEMENT_3D ( 'NONE', #76, #160, #141 ) ;
#175 = SURFACE_SIDE_STYLE ('',( #264 ) ) ;
#176 = EDGE_CURVE ( 'NONE', #153, #98, #232, .T. ) ;
#177 = VERTEX_POINT ( 'NONE', #110 ) ;
#178 =( NAMED_UNIT ( * ) SI_UNIT ( $, .STERADIAN. ) SOLID_ANGLE_UNIT ( ) );
#179 = ORIENTED_EDGE ( 'NONE', *, *, #240, .T. ) ;
#180 = PRESENTATION_LAYER_ASSIGNMENT (  '', '', ( #209 ) ) ;
#181 = SHAPE_DEFINITION_REPRESENTATION ( #18, #155 ) ;
#182 = FACE_OUTER_BOUND ( 'NONE', #156, .T. ) ;
#183 = PRODUCT_DEFINITION_FORMATION_WITH_SPECIFIED_SOURCE ( 'ANY', '', #61, .NOT_KNOWN. ) ;
#184 = STYLED_ITEM ( 'NONE', ( #126 ), #53 ) ;
#185 = PRODUCT_DEFINITION ( 'UNKNOWN', '', #183, #228 ) ;
#186 = STYLED_ITEM ( 'NONE', ( #136 ), #30 ) ;
#187 = UNCERTAINTY_MEASURE_WITH_UNIT (LENGTH_MEASURE( 1.000000000000000082E-05 ), #146, 'distance_accuracy_value', 'NONE');
#188 = CARTESIAN_POINT ( 'NONE',  ( -0.5000000000000001110, 0.000000000000000000, -0.5000000000000000000 ) ) ;
#189 = DIRECTION ( 'NONE',  ( 1.000000000000000000, 0.000000000000000000, -2.168404344971008868E-16 ) ) ;
#190 = FACE_OUTER_BOUND ( 'NONE', #131, .T. ) ;
#191 = ORIENTED_EDGE ( 'NONE', *, *, #46, .F. ) ;
#192 =( LENGTH_UNIT ( ) NAMED_UNIT ( * ) SI_UNIT ( .MILLI., .METRE. ) );
#193 = VECTOR ( 'NONE', #225, 1000.000000000000000 ) ;
#194 = ORIENTED_EDGE ( 'NONE', *, *, #37, .T. ) ;
#195 = CARTESIAN_POINT ( 'NONE',  ( 0.5000000000000001110, 0.8499999999999999778, 0.5000000000000000000 ) ) ;
#196 = ORIENTED_EDGE ( 'NONE', *, *, #37, .F. ) ;
#197 = ORIENTED_EDGE ( 'NONE', *, *, #57, .T. ) ;
#198 = DIRECTION ( 'NONE',  ( 0.000000000000000000, 0.000000000000000000, 1.000000000000000000 ) ) ;
#199 =( LENGTH_UNIT ( ) NAMED_UNIT ( * ) SI_UNIT ( .MILLI., .METRE. ) );
#200 = CARTESIAN_POINT ( 'NONE',  ( -0.4999999999999998890, 0.8499999999999999778, 0.5000000000000000000 ) ) ;
#201 = SURFACE_SIDE_STYLE ('',( #250 ) ) ;
#202 = SURFACE_SIDE_STYLE ('',( #138 ) ) ;
#203 = VECTOR ( 'NONE', #135, 1000.000000000000000 ) ;
#204 = COLOUR_RGB ( '',0.05882352941176470507, 0.05882352941176470507, 0.05882352941176470507 ) ;
#205 =( LENGTH_UNIT ( ) NAMED_UNIT ( * ) SI_UNIT ( .MILLI., .METRE. ) );
#206 = UNCERTAINTY_MEASURE_WITH_UNIT (LENGTH_MEASURE( 1.000000000000000082E-05 ), #120, 'distance_accuracy_value', 'NONE');
#207 = DIRECTION ( 'NONE',  ( -2.168404344971008868E-16, 0.000000000000000000, -1.000000000000000000 ) ) ;
#208 =( GEOMETRIC_REPRESENTATION_CONTEXT ( 3 ) GLOBAL_UNCERTAINTY_ASSIGNED_CONTEXT ( ( #206 ) ) GLOBAL_UNIT_ASSIGNED_CONTEXT ( ( #120, #75, #54 ) ) REPRESENTATION_CONTEXT ( 'NONE', 'WORKASPACE' ) );
#209 = STYLED_ITEM ( 'NONE', ( #164 ), #29 ) ;
#210 = CARTESIAN_POINT ( 'NONE',  ( -0.5000000000000001110, 0.8499999999999999778, -0.5000000000000000000 ) ) ;
#211 = DIRECTION ( 'NONE',  ( 0.000000000000000000, -0.000000000000000000, 1.000000000000000000 ) ) ;
#212 = VERTEX_POINT ( 'NONE', #94 ) ;
#213 =( NAMED_UNIT ( * ) PLANE_ANGLE_UNIT ( ) SI_UNIT ( $, .RADIAN. ) );
#214 = COLOUR_RGB ( '',0.05882352941176470507, 0.05882352941176470507, 0.05882352941176470507 ) ;
#215 = COLOUR_RGB ( '',0.05882352941176470507, 0.05882352941176470507, 0.05882352941176470507 ) ;
#216 = ORIENTED_EDGE ( 'NONE', *, *, #158, .F. ) ;
#217 = ORIENTED_EDGE ( 'NONE', *, *, #6, .T. ) ;
#218 = VECTOR ( 'NONE', #111, 1000.000000000000000 ) ;
#219 = LINE ( 'NONE', #267, #203 ) ;
#220 = FILL_AREA_STYLE_COLOUR ( '', #214 ) ;
#221 = SURFACE_SIDE_STYLE ('',( #123 ) ) ;
#222 = SURFACE_STYLE_USAGE ( .BOTH. , #202 ) ;
#223 =( LENGTH_UNIT ( ) NAMED_UNIT ( * ) SI_UNIT ( .MILLI., .METRE. ) );
#224 = FILL_AREA_STYLE ('',( #130 ) ) ;
#225 = DIRECTION ( 'NONE',  ( -1.000000000000000000, -0.000000000000000000, -0.000000000000000000 ) ) ;
#226 = COLOUR_RGB ( '',0.05882352941176470507, 0.05882352941176470507, 0.05882352941176470507 ) ;
#227 = ADVANCED_FACE ( 'NONE', ( #190 ), #115, .F. ) ;
#228 = PRODUCT_DEFINITION_CONTEXT ( 'detailed design', #235, 'design' ) ;
#229 =( NAMED_UNIT ( * ) PLANE_ANGLE_UNIT ( ) SI_UNIT ( $, .RADIAN. ) );
#230 = CLOSED_SHELL ( 'NONE', ( #227, #159, #34, #30, #143, #53 ) ) ;
#231 = VECTOR ( 'NONE', #64, 1000.000000000000000 ) ;
#232 = LINE ( 'NONE', #238, #218 ) ;
#233 = SURFACE_STYLE_USAGE ( .BOTH. , #175 ) ;
#234 = ORIENTED_EDGE ( 'NONE', *, *, #57, .F. ) ;
#235 = APPLICATION_CONTEXT ( 'automotive_design' ) ;
#236 = DIRECTION ( 'NONE',  ( 0.000000000000000000, 1.000000000000000000, 0.000000000000000000 ) ) ;
#237 = CARTESIAN_POINT ( 'NONE',  ( -0.5000000000000001110, 0.8499999999999999778, -0.5000000000000000000 ) ) ;
#238 = CARTESIAN_POINT ( 'NONE',  ( 0.4999999999999998890, 0.8499999999999999778, -0.5000000000000000000 ) ) ;
#239 = ORIENTED_EDGE ( 'NONE', *, *, #102, .T. ) ;
#240 = EDGE_CURVE ( 'NONE', #52, #177, #219, .T. ) ;
#241 =( NAMED_UNIT ( * ) PLANE_ANGLE_UNIT ( ) SI_UNIT ( $, .RADIAN. ) );
#242 = EDGE_LOOP ( 'NONE', ( #196, #67, #90, #191 ) ) ;
#243 = FACE_OUTER_BOUND ( 'NONE', #113, .T. ) ;
#244 = PRESENTATION_LAYER_ASSIGNMENT (  '', '', ( #92 ) ) ;
#245 = CARTESIAN_POINT ( 'NONE',  ( -0.5000000000000001110, 0.000000000000000000, -0.5000000000000000000 ) ) ;
#246 = PRESENTATION_LAYER_ASSIGNMENT (  '', '', ( #184 ) ) ;
#247 =( NAMED_UNIT ( * ) PLANE_ANGLE_UNIT ( ) SI_UNIT ( $, .RADIAN. ) );
#248 = FILL_AREA_STYLE ('',( #121 ) ) ;
#249 = APPLICATION_PROTOCOL_DEFINITION ( 'draft international standard', 'automotive_design', 1998, #257 ) ;
#250 = SURFACE_STYLE_FILL_AREA ( #248 ) ;
#251 = MECHANICAL_DESIGN_GEOMETRIC_PRESENTATION_REPRESENTATION (  '', ( #209 ), #124 ) ;
#252 = DIRECTION ( 'NONE',  ( 2.168404344971008868E-16, 0.000000000000000000, 1.000000000000000000 ) ) ;
#253 = FILL_AREA_STYLE_COLOUR ( '', #226 ) ;
#254 = FILL_AREA_STYLE ('',( #253 ) ) ;
#255 = CARTESIAN_POINT ( 'NONE',  ( 0.4999999999999998890, 0.8499999999999999778, -0.5000000000000000000 ) ) ;
#256 = CARTESIAN_POINT ( 'NONE',  ( -0.4999999999999998890, 0.8499999999999999778, 0.5000000000000000000 ) ) ;
#257 = APPLICATION_CONTEXT ( 'automotive_design' ) ;
#258 = PLANE ( 'NONE',  #127 ) ;
#259 = MECHANICAL_DESIGN_GEOMETRIC_PRESENTATION_REPRESENTATION (  '', ( #186 ), #19 ) ;
#260 = MECHANICAL_DESIGN_GEOMETRIC_PRESENTATION_REPRESENTATION (  '', ( #269 ), #3 ) ;
#261 = CARTESIAN_POINT ( 'NONE',  ( 0.000000000000000000, 0.8499999999999999778, 0.000000000000000000 ) ) ;
#262 = FACE_OUTER_BOUND ( 'NONE', #100, .T. ) ;
#263 = ORIENTED_EDGE ( 'NONE', *, *, #13, .F. ) ;
#264 = SURFACE_STYLE_FILL_AREA ( #173 ) ;
#265 = VERTEX_POINT ( 'NONE', #200 ) ;
#266 =( NAMED_UNIT ( * ) SI_UNIT ( $, .STERADIAN. ) SOLID_ANGLE_UNIT ( ) );
#267 = CARTESIAN_POINT ( 'NONE',  ( -0.4999999999999998890, 0.000000000000000000, 0.5000000000000000000 ) ) ;
#268 = SURFACE_STYLE_USAGE ( .BOTH. , #221 ) ;
#269 = STYLED_ITEM ( 'NONE', ( #108 ), #143 ) ;
#270 =( NAMED_UNIT ( * ) PLANE_ANGLE_UNIT ( ) SI_UNIT ( $, .RADIAN. ) );
#271 = PRODUCT_CONTEXT ( 'NONE', #257, 'mechanical' ) ;
#272 = CARTESIAN_POINT ( 'NONE',  ( -0.5000000000000001110, 0.8499999999999999778, -0.5000000000000000000 ) ) ;
#273 = LINE ( 'NONE', #188, #193 ) ;
#274 = VECTOR ( 'NONE', #122, 1000.000000000000000 ) ;
#275 = PLANE ( 'NONE',  #82 ) ;
#276 = DIRECTION ( 'NONE',  ( -2.168404344971008868E-16, -0.000000000000000000, -1.000000000000000000 ) ) ;
#277 = CARTESIAN_POINT ( 'NONE',  ( 0.4999999999999998890, 0.000000000000000000, -0.5000000000000000000 ) ) ;
ENDSEC;
END-ISO-10303-21;
