ISO-10303-21;
HEADER;
FILE_DESCRIPTION (( 'STEP AP214' ),
    '1' );
FILE_NAME ('aw20216.STEP',
    '2025-12-08T12:09:58',
    ( '' ),
    ( '' ),
    'SwSTEP 2.0',
    'SolidWorks 2025',
    '' );
FILE_SCHEMA (( 'AUTOMOTIVE_DESIGN' ));
ENDSEC;

DATA;
#1 = VERTEX_POINT ( 'NONE', #156 ) ;
#2 = DIRECTION ( 'NONE',  ( 0.000000000000000000, 0.000000000000000000, 1.000000000000000000 ) ) ;
#3 = FILL_AREA_STYLE ('',( #379 ) ) ;
#4 =( GEOMETRIC_REPRESENTATION_CONTEXT ( 3 ) GLOBAL_UNCERTAINTY_ASSIGNED_CONTEXT ( ( #254 ) ) GLOBAL_UNIT_ASSIGNED_CONTEXT ( ( #77, #83, #266 ) ) REPRESENTATION_CONTEXT ( 'NONE', 'WORKASPACE' ) );
#5 = VECTOR ( 'NONE', #301, 1000.000000000000000 ) ;
#6 = CARTESIAN_POINT ( 'NONE',  ( 2.500000000000000444, 0.7500000000000000000, -2.499999999999999556 ) ) ;
#7 = CARTESIAN_POINT ( 'NONE',  ( 2.500000000000000444, 0.7500000000000000000, -2.499999999999999556 ) ) ;
#8 = CARTESIAN_POINT ( 'NONE',  ( -2.499999999999999112, 0.000000000000000000, 2.500000000000000444 ) ) ;
#9 = FILL_AREA_STYLE_COLOUR ( '', #387 ) ;
#10 = SURFACE_STYLE_USAGE ( .BOTH. , #383 ) ;
#11 = DIRECTION ( 'NONE',  ( -0.000000000000000000, -1.000000000000000000, -0.000000000000000000 ) ) ;
#12 = ADVANCED_FACE ( 'NONE', ( #88 ), #67, .T. ) ;
#13 = DIRECTION ( 'NONE',  ( 1.000000000000000000, 0.000000000000000000, 0.000000000000000000 ) ) ;
#14 =( GEOMETRIC_REPRESENTATION_CONTEXT ( 3 ) GLOBAL_UNCERTAINTY_ASSIGNED_CONTEXT ( ( #289 ) ) GLOBAL_UNIT_ASSIGNED_CONTEXT ( ( #195, #111, #394 ) ) REPRESENTATION_CONTEXT ( 'NONE', 'WORKASPACE' ) );
#15 = EDGE_LOOP ( 'NONE', ( #23, #74, #298, #265 ) ) ;
#16 = VECTOR ( 'NONE', #11, 1000.000000000000000 ) ;
#17 = CARTESIAN_POINT ( 'NONE',  ( -2.499999999999999112, 0.7500000000000000000, 2.500000000000000444 ) ) ;
#18 = ORIENTED_EDGE ( 'NONE', *, *, #207, .F. ) ;
#19 = SURFACE_STYLE_USAGE ( .BOTH. , #90 ) ;
#20 = VERTEX_POINT ( 'NONE', #27 ) ;
#21 = SURFACE_STYLE_FILL_AREA ( #53 ) ;
#22 = FILL_AREA_STYLE_COLOUR ( '', #129 ) ;
#23 = ORIENTED_EDGE ( 'NONE', *, *, #71, .T. ) ;
#24 = DIRECTION ( 'NONE',  ( -1.000000000000000000, -0.000000000000000000, -0.000000000000000000 ) ) ;
#25 = ORIENTED_EDGE ( 'NONE', *, *, #152, .F. ) ;
#26 = PRESENTATION_STYLE_ASSIGNMENT (( #81 ) ) ;
#27 = CARTESIAN_POINT ( 'NONE',  ( 2.500000000000000444, 0.000000000000000000, -2.499999999999999556 ) ) ;
#28 = LINE ( 'NONE', #6, #30 ) ;
#29 = MECHANICAL_DESIGN_GEOMETRIC_PRESENTATION_REPRESENTATION (  '', ( #342 ), #308 ) ;
#30 = VECTOR ( 'NONE', #192, 1000.000000000000000 ) ;
#31 = SURFACE_SIDE_STYLE ('',( #314 ) ) ;
#32 = PRESENTATION_STYLE_ASSIGNMENT (( #373 ) ) ;
#33 = SURFACE_STYLE_FILL_AREA ( #3 ) ;
#34 = SURFACE_STYLE_USAGE ( .BOTH. , #31 ) ;
#35 = COLOUR_RGB ( '',1.000000000000000000, 1.000000000000000000, 1.000000000000000000 ) ;
#36 = MECHANICAL_DESIGN_GEOMETRIC_PRESENTATION_REPRESENTATION (  '', ( #206 ), #189 ) ;
#37 =( LENGTH_UNIT ( ) NAMED_UNIT ( * ) SI_UNIT ( .MILLI., .METRE. ) );
#38 = ADVANCED_FACE ( 'NONE', ( #209 ), #65, .T. ) ;
#39 = FILL_AREA_STYLE_COLOUR ( '', #234 ) ;
#40 = CARTESIAN_POINT ( 'NONE',  ( -2.499999999999999112, 0.7500000000000000000, 2.500000000000000444 ) ) ;
#41 =( NAMED_UNIT ( * ) SI_UNIT ( $, .STERADIAN. ) SOLID_ANGLE_UNIT ( ) );
#42 = DIRECTION ( 'NONE',  ( -0.000000000000000000, -1.000000000000000000, -0.000000000000000000 ) ) ;
#43 = STYLED_ITEM ( 'NONE', ( #385 ), #94 ) ;
#44 = AXIS2_PLACEMENT_3D ( 'NONE', #145, #271, #228 ) ;
#45 = LINE ( 'NONE', #165, #225 ) ;
#46 = ADVANCED_FACE ( 'NONE', ( #227 ), #221, .F. ) ;
#47 = LINE ( 'NONE', #40, #16 ) ;
#48 = CARTESIAN_POINT ( 'NONE',  ( -1.749999999999999556, 0.7600000000000000089, -1.749999999999999556 ) ) ;
#49 = EDGE_LOOP ( 'NONE', ( #364, #147 ) ) ;
#50 = CARTESIAN_POINT ( 'NONE',  ( -1.749999999999999556, 0.7600000000000000089, -1.749999999999999556 ) ) ;
#51 = PRESENTATION_LAYER_ASSIGNMENT (  '', '', ( #287 ) ) ;
#52 =( GEOMETRIC_REPRESENTATION_CONTEXT ( 3 ) GLOBAL_UNCERTAINTY_ASSIGNED_CONTEXT ( ( #99 ) ) GLOBAL_UNIT_ASSIGNED_CONTEXT ( ( #37, #170, #41 ) ) REPRESENTATION_CONTEXT ( 'NONE', 'WORKASPACE' ) );
#53 = FILL_AREA_STYLE ('',( #115 ) ) ;
#54 = FACE_OUTER_BOUND ( 'NONE', #241, .T. ) ;
#55 = EDGE_LOOP ( 'NONE', ( #123, #144, #176, #302 ) ) ;
#56 = ORIENTED_EDGE ( 'NONE', *, *, #323, .T. ) ;
#57 = ORIENTED_EDGE ( 'NONE', *, *, #246, .F. ) ;
#58 = VECTOR ( 'NONE', #132, 1000.000000000000000 ) ;
#59 =( GEOMETRIC_REPRESENTATION_CONTEXT ( 3 ) GLOBAL_UNCERTAINTY_ASSIGNED_CONTEXT ( ( #75 ) ) GLOBAL_UNIT_ASSIGNED_CONTEXT ( ( #139, #270, #233 ) ) REPRESENTATION_CONTEXT ( 'NONE', 'WORKASPACE' ) );
#60 = EDGE_CURVE ( 'NONE', #85, #20, #293, .T. ) ;
#61 = PRESENTATION_STYLE_ASSIGNMENT (( #19 ) ) ;
#62 = FILL_AREA_STYLE_COLOUR ( '', #324 ) ;
#63 = PRESENTATION_STYLE_ASSIGNMENT (( #68 ) ) ;
#64 = MECHANICAL_DESIGN_GEOMETRIC_PRESENTATION_REPRESENTATION (  '', ( #107 ), #197 ) ;
#65 = PLANE ( 'NONE',  #381 ) ;
#66 = PLANE ( 'NONE',  #194 ) ;
#67 = CYLINDRICAL_SURFACE ( 'NONE', #150, 0.2000000000000000944 ) ;
#68 = SURFACE_STYLE_USAGE ( .BOTH. , #157 ) ;
#69 = EDGE_CURVE ( 'NONE', #273, #114, #45, .T. ) ;
#70 = PRODUCT_CONTEXT ( 'NONE', #229, 'mechanical' ) ;
#71 = EDGE_CURVE ( 'NONE', #203, #179, #168, .T. ) ;
#72 = SURFACE_SIDE_STYLE ('',( #196 ) ) ;
#73 = VECTOR ( 'NONE', #264, 1000.000000000000000 ) ;
#74 = ORIENTED_EDGE ( 'NONE', *, *, #185, .F. ) ;
#75 = UNCERTAINTY_MEASURE_WITH_UNIT (LENGTH_MEASURE( 1.000000000000000082E-05 ), #139, 'distance_accuracy_value', 'NONE');
#76 = DIRECTION ( 'NONE',  ( -0.000000000000000000, -1.000000000000000000, -0.000000000000000000 ) ) ;
#77 =( LENGTH_UNIT ( ) NAMED_UNIT ( * ) SI_UNIT ( .MILLI., .METRE. ) );
#78 = EDGE_CURVE ( 'NONE', #85, #137, #128, .T. ) ;
#79 = EDGE_LOOP ( 'NONE', ( #201, #361, #56, #294 ) ) ;
#80 = DIRECTION ( 'NONE',  ( 1.000000000000000000, 0.000000000000000000, -8.673617379884034239E-17 ) ) ;
#81 = SURFACE_STYLE_USAGE ( .BOTH. , #397 ) ;
#82 = ORIENTED_EDGE ( 'NONE', *, *, #185, .T. ) ;
#83 =( NAMED_UNIT ( * ) PLANE_ANGLE_UNIT ( ) SI_UNIT ( $, .RADIAN. ) );
#84 = SURFACE_STYLE_USAGE ( .BOTH. , #386 ) ;
#85 = VERTEX_POINT ( 'NONE', #7 ) ;
#86 = EDGE_CURVE ( 'NONE', #273, #1, #113, .T. ) ;
#87 = FACE_OUTER_BOUND ( 'NONE', #375, .T. ) ;
#88 = FACE_OUTER_BOUND ( 'NONE', #305, .T. ) ;
#89 = MECHANICAL_DESIGN_GEOMETRIC_PRESENTATION_REPRESENTATION (  '', ( #43 ), #14 ) ;
#90 = SURFACE_SIDE_STYLE ('',( #183 ) ) ;
#91 = PRODUCT ( 'aw20216', 'aw20216', '', ( #70 ) ) ;
#92 = CARTESIAN_POINT ( 'NONE',  ( -2.499999999999999556, 0.000000000000000000, -2.499999999999999556 ) ) ;
#93 =( NAMED_UNIT ( * ) SI_UNIT ( $, .STERADIAN. ) SOLID_ANGLE_UNIT ( ) );
#94 = ADVANCED_FACE ( 'NONE', ( #390 ), #290, .F. ) ;
#95 = ORIENTED_EDGE ( 'NONE', *, *, #246, .T. ) ;
#96 = PRESENTATION_LAYER_ASSIGNMENT (  '', '', ( #382 ) ) ;
#97 = DIRECTION ( 'NONE',  ( -0.000000000000000000, -1.000000000000000000, -0.000000000000000000 ) ) ;
#98 =( NAMED_UNIT ( * ) PLANE_ANGLE_UNIT ( ) SI_UNIT ( $, .RADIAN. ) );
#99 = UNCERTAINTY_MEASURE_WITH_UNIT (LENGTH_MEASURE( 1.000000000000000082E-05 ), #37, 'distance_accuracy_value', 'NONE');
#100 = DIRECTION ( 'NONE',  ( 0.000000000000000000, 0.000000000000000000, 1.000000000000000000 ) ) ;
#101 = CARTESIAN_POINT ( 'NONE',  ( 2.500000000000000444, 0.7500000000000000000, -2.499999999999999556 ) ) ;
#102 = VECTOR ( 'NONE', #231, 1000.000000000000000 ) ;
#103 =( LENGTH_UNIT ( ) NAMED_UNIT ( * ) SI_UNIT ( .MILLI., .METRE. ) );
#104 = PRODUCT_DEFINITION_CONTEXT ( 'detailed design', #154, 'design' ) ;
#105 = DIRECTION ( 'NONE',  ( 0.000000000000000000, 1.000000000000000000, 0.000000000000000000 ) ) ;
#106 = LINE ( 'NONE', #317, #102 ) ;
#107 = STYLED_ITEM ( 'NONE', ( #32 ), #12 ) ;
#108 = AXIS2_PLACEMENT_3D ( 'NONE', #267, #333, #243 ) ;
#109 = EDGE_CURVE ( 'NONE', #114, #360, #248, .T. ) ;
#110 = ORIENTED_EDGE ( 'NONE', *, *, #86, .F. ) ;
#111 =( NAMED_UNIT ( * ) PLANE_ANGLE_UNIT ( ) SI_UNIT ( $, .RADIAN. ) );
#112 = FILL_AREA_STYLE ('',( #22 ) ) ;
#113 = CIRCLE ( 'NONE', #280, 0.2000000000000000944 ) ;
#114 = VERTEX_POINT ( 'NONE', #230 ) ;
#115 = FILL_AREA_STYLE_COLOUR ( '', #125 ) ;
#116 = EDGE_CURVE ( 'NONE', #328, #140, #202, .T. ) ;
#117 = ORIENTED_EDGE ( 'NONE', *, *, #378, .T. ) ;
#118 = CARTESIAN_POINT ( 'NONE',  ( 2.500000000000000444, 0.7500000000000000000, 2.500000000000000444 ) ) ;
#119 = FILL_AREA_STYLE_COLOUR ( '', #166 ) ;
#120 = ORIENTED_EDGE ( 'NONE', *, *, #71, .F. ) ;
#121 = VECTOR ( 'NONE', #358, 1000.000000000000000 ) ;
#122 =( NAMED_UNIT ( * ) SI_UNIT ( $, .STERADIAN. ) SOLID_ANGLE_UNIT ( ) );
#123 = ORIENTED_EDGE ( 'NONE', *, *, #291, .T. ) ;
#124 = DIRECTION ( 'NONE',  ( 0.000000000000000000, 0.000000000000000000, 1.000000000000000000 ) ) ;
#125 = COLOUR_RGB ( '',0.05882352941176470507, 0.05882352941176470507, 0.05882352941176470507 ) ;
#126 =( LENGTH_UNIT ( ) NAMED_UNIT ( * ) SI_UNIT ( .MILLI., .METRE. ) );
#127 = PRESENTATION_LAYER_ASSIGNMENT (  '', '', ( #43 ) ) ;
#128 = LINE ( 'NONE', #134, #58 ) ;
#129 = COLOUR_RGB ( '',0.05882352941176470507, 0.05882352941176470507, 0.05882352941176470507 ) ;
#130 = FILL_AREA_STYLE ('',( #9 ) ) ;
#131 = CARTESIAN_POINT ( 'NONE',  ( 0.000000000000000000, 0.000000000000000000, 0.000000000000000000 ) ) ;
#132 = DIRECTION ( 'NONE',  ( -1.000000000000000000, -0.000000000000000000, -0.000000000000000000 ) ) ;
#133 = SURFACE_STYLE_FILL_AREA ( #169 ) ;
#134 = CARTESIAN_POINT ( 'NONE',  ( -2.499999999999999556, 0.7500000000000000000, -2.499999999999999556 ) ) ;
#135 = PRESENTATION_LAYER_ASSIGNMENT (  '', '', ( #261 ) ) ;
#136 = COLOUR_RGB ( '',0.05882352941176470507, 0.05882352941176470507, 0.05882352941176470507 ) ;
#137 = VERTEX_POINT ( 'NONE', #242 ) ;
#138 = ORIENTED_EDGE ( 'NONE', *, *, #86, .T. ) ;
#139 =( LENGTH_UNIT ( ) NAMED_UNIT ( * ) SI_UNIT ( .MILLI., .METRE. ) );
#140 = VERTEX_POINT ( 'NONE', #118 ) ;
#141 = PLANE ( 'NONE',  #44 ) ;
#142 = CARTESIAN_POINT ( 'NONE',  ( 2.500000000000000444, 0.000000000000000000, -2.499999999999999556 ) ) ;
#143 = VECTOR ( 'NONE', #76, 1000.000000000000000 ) ;
#144 = ORIENTED_EDGE ( 'NONE', *, *, #220, .F. ) ;
#145 = CARTESIAN_POINT ( 'NONE',  ( 0.000000000000000000, 0.000000000000000000, 0.000000000000000000 ) ) ;
#146 = CYLINDRICAL_SURFACE ( 'NONE', #161, 0.2000000000000000944 ) ;
#147 = ORIENTED_EDGE ( 'NONE', *, *, #109, .F. ) ;
#148 =( NAMED_UNIT ( * ) PLANE_ANGLE_UNIT ( ) SI_UNIT ( $, .RADIAN. ) );
#149 =( NAMED_UNIT ( * ) SI_UNIT ( $, .STERADIAN. ) SOLID_ANGLE_UNIT ( ) );
#150 = AXIS2_PLACEMENT_3D ( 'NONE', #377, #97, #306 ) ;
#151 = PRODUCT_DEFINITION_FORMATION_WITH_SPECIFIED_SOURCE ( 'ANY', '', #91, .NOT_KNOWN. ) ;
#152 = EDGE_CURVE ( 'NONE', #365, #203, #366, .T. ) ;
#153 = DIRECTION ( 'NONE',  ( -1.000000000000000000, 0.000000000000000000, 0.000000000000000000 ) ) ;
#154 = APPLICATION_CONTEXT ( 'automotive_design' ) ;
#155 = PRESENTATION_STYLE_ASSIGNMENT (( #34 ) ) ;
#156 = CARTESIAN_POINT ( 'NONE',  ( -1.749999999999999556, 0.7600000000000000089, -1.949999999999999734 ) ) ;
#157 = SURFACE_SIDE_STYLE ('',( #33 ) ) ;
#158 = EDGE_CURVE ( 'NONE', #360, #114, #355, .T. ) ;
#159 = AXIS2_PLACEMENT_3D ( 'NONE', #392, #239, #177 ) ;
#160 = CARTESIAN_POINT ( 'NONE',  ( -1.749999999999999556, 0.7600000000000000089, -1.949999999999999734 ) ) ;
#161 = AXIS2_PLACEMENT_3D ( 'NONE', #199, #327, #376 ) ;
#162 = CARTESIAN_POINT ( 'NONE',  ( -1.749999999999999556, 0.7500000000000000000, -1.949999999999999734 ) ) ;
#163 = SHAPE_DEFINITION_REPRESENTATION ( #274, #398 ) ;
#164 = ADVANCED_FACE ( 'NONE', ( #87 ), #141, .F. ) ;
#165 = CARTESIAN_POINT ( 'NONE',  ( -1.749999999999999556, 0.7600000000000000089, -1.549999999999999600 ) ) ;
#166 = COLOUR_RGB ( '',1.000000000000000000, 1.000000000000000000, 1.000000000000000000 ) ;
#167 = DIRECTION ( 'NONE',  ( 1.000000000000000000, 0.000000000000000000, 0.000000000000000000 ) ) ;
#168 = LINE ( 'NONE', #8, #276 ) ;
#169 = FILL_AREA_STYLE ('',( #354 ) ) ;
#170 =( NAMED_UNIT ( * ) PLANE_ANGLE_UNIT ( ) SI_UNIT ( $, .RADIAN. ) );
#171 = DIRECTION ( 'NONE',  ( 0.000000000000000000, -0.000000000000000000, 1.000000000000000000 ) ) ;
#172 = UNCERTAINTY_MEASURE_WITH_UNIT (LENGTH_MEASURE( 1.000000000000000082E-05 ), #103, 'distance_accuracy_value', 'NONE');
#173 = CARTESIAN_POINT ( 'NONE',  ( 2.500000000000000444, 0.000000000000000000, 2.500000000000000444 ) ) ;
#174 = MECHANICAL_DESIGN_GEOMETRIC_PRESENTATION_REPRESENTATION (  '', ( #287 ), #318 ) ;
#175 = COLOUR_RGB ( '',0.05882352941176470507, 0.05882352941176470507, 0.05882352941176470507 ) ;
#176 = ORIENTED_EDGE ( 'NONE', *, *, #78, .F. ) ;
#177 = DIRECTION ( 'NONE',  ( 0.000000000000000000, 0.000000000000000000, 1.000000000000000000 ) ) ;
#178 = CARTESIAN_POINT ( 'NONE',  ( -2.499999999999999556, 0.000000000000000000, -2.499999999999999556 ) ) ;
#179 = VERTEX_POINT ( 'NONE', #173 ) ;
#180 = MECHANICAL_DESIGN_GEOMETRIC_PRESENTATION_REPRESENTATION (  '', ( #296 ), #288 ) ;
#181 = ORIENTED_EDGE ( 'NONE', *, *, #311, .F. ) ;
#182 = DIRECTION ( 'NONE',  ( 0.000000000000000000, 0.000000000000000000, 1.000000000000000000 ) ) ;
#183 = SURFACE_STYLE_FILL_AREA ( #240 ) ;
#184 = LINE ( 'NONE', #178, #304 ) ;
#185 = EDGE_CURVE ( 'NONE', #140, #179, #106, .T. ) ;
#186 = FILL_AREA_STYLE ('',( #62 ) ) ;
#187 = LINE ( 'NONE', #193, #356 ) ;
#188 = FILL_AREA_STYLE ('',( #215 ) ) ;
#189 =( GEOMETRIC_REPRESENTATION_CONTEXT ( 3 ) GLOBAL_UNCERTAINTY_ASSIGNED_CONTEXT ( ( #245 ) ) GLOBAL_UNIT_ASSIGNED_CONTEXT ( ( #282, #190, #93 ) ) REPRESENTATION_CONTEXT ( 'NONE', 'WORKASPACE' ) );
#190 =( NAMED_UNIT ( * ) PLANE_ANGLE_UNIT ( ) SI_UNIT ( $, .RADIAN. ) );
#191 = SURFACE_STYLE_FILL_AREA ( #188 ) ;
#192 = DIRECTION ( 'NONE',  ( -0.000000000000000000, -0.000000000000000000, -1.000000000000000000 ) ) ;
#193 = CARTESIAN_POINT ( 'NONE',  ( -2.499999999999999556, 0.7500000000000000000, -2.499999999999999556 ) ) ;
#194 = AXIS2_PLACEMENT_3D ( 'NONE', #249, #153, #124 ) ;
#195 =( LENGTH_UNIT ( ) NAMED_UNIT ( * ) SI_UNIT ( .MILLI., .METRE. ) );
#196 = SURFACE_STYLE_FILL_AREA ( #252 ) ;
#197 =( GEOMETRIC_REPRESENTATION_CONTEXT ( 3 ) GLOBAL_UNCERTAINTY_ASSIGNED_CONTEXT ( ( #251 ) ) GLOBAL_UNIT_ASSIGNED_CONTEXT ( ( #211, #344, #368 ) ) REPRESENTATION_CONTEXT ( 'NONE', 'WORKASPACE' ) );
#198 = CIRCLE ( 'NONE', #262, 0.2000000000000000944 ) ;
#199 = CARTESIAN_POINT ( 'NONE',  ( -1.749999999999999556, 0.7600000000000000089, -1.749999999999999556 ) ) ;
#200 = AXIS2_PLACEMENT_3D ( 'NONE', #285, #257, #353 ) ;
#201 = ORIENTED_EDGE ( 'NONE', *, *, #330, .T. ) ;
#202 = LINE ( 'NONE', #17, #334 ) ;
#203 = VERTEX_POINT ( 'NONE', #223 ) ;
#204 = ORIENTED_EDGE ( 'NONE', *, *, #152, .T. ) ;
#205 = CLOSED_SHELL ( 'NONE', ( #303, #389, #339, #94, #46, #236, #164, #12, #38 ) ) ;
#206 = STYLED_ITEM ( 'NONE', ( #155 ), #339 ) ;
#207 = EDGE_CURVE ( 'NONE', #328, #203, #47, .T. ) ;
#208 = SURFACE_STYLE_FILL_AREA ( #186 ) ;
#209 = FACE_OUTER_BOUND ( 'NONE', #247, .T. ) ;
#210 = CARTESIAN_POINT ( 'NONE',  ( -2.499999999999999556, 0.7500000000000000000, -2.499999999999999556 ) ) ;
#211 =( LENGTH_UNIT ( ) NAMED_UNIT ( * ) SI_UNIT ( .MILLI., .METRE. ) );
#212 = AXIS2_PLACEMENT_3D ( 'NONE', #297, #400, #182 ) ;
#213 = AXIS2_PLACEMENT_3D ( 'NONE', #210, #310, #216 ) ;
#214 = FACE_OUTER_BOUND ( 'NONE', #263, .T. ) ;
#215 = FILL_AREA_STYLE_COLOUR ( '', #35 ) ;
#216 = DIRECTION ( 'NONE',  ( 1.000000000000000000, 0.000000000000000000, -0.000000000000000000 ) ) ;
#217 =( NAMED_UNIT ( * ) SI_UNIT ( $, .STERADIAN. ) SOLID_ANGLE_UNIT ( ) );
#218 = PRESENTATION_LAYER_ASSIGNMENT (  '', '', ( #107 ) ) ;
#219 = DIRECTION ( 'NONE',  ( 0.000000000000000000, 0.000000000000000000, 1.000000000000000000 ) ) ;
#220 = EDGE_CURVE ( 'NONE', #137, #365, #286, .T. ) ;
#221 = PLANE ( 'NONE',  #200 ) ;
#222 = FACE_BOUND ( 'NONE', #49, .T. ) ;
#223 = CARTESIAN_POINT ( 'NONE',  ( -2.499999999999999112, 0.000000000000000000, 2.500000000000000444 ) ) ;
#224 = PRODUCT_DEFINITION ( 'UNKNOWN', '', #151, #104 ) ;
#225 = VECTOR ( 'NONE', #42, 1000.000000000000000 ) ;
#226 = MECHANICAL_DESIGN_GEOMETRIC_PRESENTATION_REPRESENTATION (  '', ( #382 ), #362 ) ;
#227 = FACE_OUTER_BOUND ( 'NONE', #15, .T. ) ;
#228 = DIRECTION ( 'NONE',  ( 0.000000000000000000, -0.000000000000000000, 1.000000000000000000 ) ) ;
#229 = APPLICATION_CONTEXT ( 'automotive_design' ) ;
#230 = CARTESIAN_POINT ( 'NONE',  ( -1.749999999999999556, 0.7500000000000000000, -1.549999999999999600 ) ) ;
#231 = DIRECTION ( 'NONE',  ( -0.000000000000000000, -1.000000000000000000, -0.000000000000000000 ) ) ;
#232 = ORIENTED_EDGE ( 'NONE', *, *, #109, .T. ) ;
#233 =( NAMED_UNIT ( * ) SI_UNIT ( $, .STERADIAN. ) SOLID_ANGLE_UNIT ( ) );
#234 = COLOUR_RGB ( '',0.05882352941176470507, 0.05882352941176470507, 0.05882352941176470507 ) ;
#235 = STYLED_ITEM ( 'NONE', ( #275 ), #236 ) ;
#236 = ADVANCED_FACE ( 'NONE', ( #222, #260 ), #352, .T. ) ;
#237 = ORIENTED_EDGE ( 'NONE', *, *, #323, .F. ) ;
#238 = PRESENTATION_STYLE_ASSIGNMENT (( #369 ) ) ;
#239 = DIRECTION ( 'NONE',  ( 0.000000000000000000, 1.000000000000000000, 0.000000000000000000 ) ) ;
#240 = FILL_AREA_STYLE ('',( #119 ) ) ;
#241 = EDGE_LOOP ( 'NONE', ( #110, #402, #232, #181 ) ) ;
#242 = CARTESIAN_POINT ( 'NONE',  ( -2.499999999999999556, 0.7500000000000000000, -2.499999999999999556 ) ) ;
#243 = DIRECTION ( 'NONE',  ( 0.000000000000000000, -0.000000000000000000, 1.000000000000000000 ) ) ;
#244 =( LENGTH_UNIT ( ) NAMED_UNIT ( * ) SI_UNIT ( .MILLI., .METRE. ) );
#245 = UNCERTAINTY_MEASURE_WITH_UNIT (LENGTH_MEASURE( 1.000000000000000082E-05 ), #282, 'distance_accuracy_value', 'NONE');
#246 = EDGE_CURVE ( 'NONE', #179, #20, #363, .T. ) ;
#247 = EDGE_LOOP ( 'NONE', ( #117, #138 ) ) ;
#248 = CIRCLE ( 'NONE', #212, 0.2000000000000000944 ) ;
#249 = CARTESIAN_POINT ( 'NONE',  ( 2.500000000000000444, 0.7500000000000000000, -2.499999999999999556 ) ) ;
#250 = FILL_AREA_STYLE ('',( #341 ) ) ;
#251 = UNCERTAINTY_MEASURE_WITH_UNIT (LENGTH_MEASURE( 1.000000000000000082E-05 ), #211, 'distance_accuracy_value', 'NONE');
#252 = FILL_AREA_STYLE ('',( #39 ) ) ;
#253 = PRESENTATION_LAYER_ASSIGNMENT (  '', '', ( #206 ) ) ;
#254 = UNCERTAINTY_MEASURE_WITH_UNIT (LENGTH_MEASURE( 1.000000000000000082E-05 ), #77, 'distance_accuracy_value', 'NONE');
#255 = DIRECTION ( 'NONE',  ( 0.000000000000000000, 1.000000000000000000, 0.000000000000000000 ) ) ;
#256 = CARTESIAN_POINT ( 'NONE',  ( -2.499999999999999556, 0.7500000000000000000, -2.499999999999999556 ) ) ;
#257 = DIRECTION ( 'NONE',  ( 0.000000000000000000, 0.000000000000000000, -1.000000000000000000 ) ) ;
#258 = UNCERTAINTY_MEASURE_WITH_UNIT (LENGTH_MEASURE( 1.000000000000000082E-05 ), #367, 'distance_accuracy_value', 'NONE');
#259 = CARTESIAN_POINT ( 'NONE',  ( -1.749999999999999556, 0.7600000000000000089, -1.749999999999999556 ) ) ;
#260 = FACE_OUTER_BOUND ( 'NONE', #79, .T. ) ;
#261 = STYLED_ITEM ( 'NONE', ( #238 ), #164 ) ;
#262 = AXIS2_PLACEMENT_3D ( 'NONE', #48, #347, #2 ) ;
#263 = EDGE_LOOP ( 'NONE', ( #95, #399, #393, #82 ) ) ;
#264 = DIRECTION ( 'NONE',  ( 8.673617379884035472E-17, 0.000000000000000000, 1.000000000000000000 ) ) ;
#265 = ORIENTED_EDGE ( 'NONE', *, *, #207, .T. ) ;
#266 =( NAMED_UNIT ( * ) SI_UNIT ( $, .STERADIAN. ) SOLID_ANGLE_UNIT ( ) );
#267 = CARTESIAN_POINT ( 'NONE',  ( 0.000000000000000000, 0.7500000000000000000, 0.000000000000000000 ) ) ;
#268 = ORIENTED_EDGE ( 'NONE', *, *, #291, .F. ) ;
#269 = CARTESIAN_POINT ( 'NONE',  ( -2.499999999999999556, 0.7500000000000000000, -2.499999999999999556 ) ) ;
#270 =( NAMED_UNIT ( * ) PLANE_ANGLE_UNIT ( ) SI_UNIT ( $, .RADIAN. ) );
#271 = DIRECTION ( 'NONE',  ( 0.000000000000000000, 1.000000000000000000, 0.000000000000000000 ) ) ;
#272 = SURFACE_STYLE_FILL_AREA ( #112 ) ;
#273 = VERTEX_POINT ( 'NONE', #370 ) ;
#274 = PRODUCT_DEFINITION_SHAPE ( 'NONE', 'NONE',  #224 ) ;
#275 = PRESENTATION_STYLE_ASSIGNMENT (( #84 ) ) ;
#276 = VECTOR ( 'NONE', #13, 1000.000000000000000 ) ;
#277 = DIRECTION ( 'NONE',  ( -0.000000000000000000, -1.000000000000000000, -0.000000000000000000 ) ) ;
#278 = PLANE ( 'NONE',  #213 ) ;
#279 = SURFACE_STYLE_USAGE ( .BOTH. , #346 ) ;
#280 = AXIS2_PLACEMENT_3D ( 'NONE', #259, #255, #219 ) ;
#281 = MECHANICAL_DESIGN_GEOMETRIC_PRESENTATION_REPRESENTATION (  '', ( #235 ), #59 ) ;
#282 =( LENGTH_UNIT ( ) NAMED_UNIT ( * ) SI_UNIT ( .MILLI., .METRE. ) );
#283 = MANIFOLD_SOLID_BREP ( 'Boss-Extrude2', #205 ) ;
#284 = PRESENTATION_STYLE_ASSIGNMENT (( #320 ) ) ;
#285 = CARTESIAN_POINT ( 'NONE',  ( -2.499999999999999112, 0.7500000000000000000, 2.500000000000000444 ) ) ;
#286 = LINE ( 'NONE', #256, #121 ) ;
#287 = STYLED_ITEM ( 'NONE', ( #284 ), #46 ) ;
#288 =( GEOMETRIC_REPRESENTATION_CONTEXT ( 3 ) GLOBAL_UNCERTAINTY_ASSIGNED_CONTEXT ( ( #357 ) ) GLOBAL_UNIT_ASSIGNED_CONTEXT ( ( #244, #98, #217 ) ) REPRESENTATION_CONTEXT ( 'NONE', 'WORKASPACE' ) );
#289 = UNCERTAINTY_MEASURE_WITH_UNIT (LENGTH_MEASURE( 1.000000000000000082E-05 ), #195, 'distance_accuracy_value', 'NONE');
#290 = PLANE ( 'NONE',  #312 ) ;
#291 = EDGE_CURVE ( 'NONE', #20, #365, #184, .T. ) ;
#292 = SURFACE_STYLE_FILL_AREA ( #130 ) ;
#293 = LINE ( 'NONE', #101, #143 ) ;
#294 = ORIENTED_EDGE ( 'NONE', *, *, #116, .T. ) ;
#295 = PRESENTATION_LAYER_ASSIGNMENT (  '', '', ( #342 ) ) ;
#296 = STYLED_ITEM ( 'NONE', ( #63 ), #389 ) ;
#297 = CARTESIAN_POINT ( 'NONE',  ( -1.749999999999999556, 0.7500000000000000000, -1.749999999999999556 ) ) ;
#298 = ORIENTED_EDGE ( 'NONE', *, *, #116, .F. ) ;
#299 = ORIENTED_EDGE ( 'NONE', *, *, #311, .T. ) ;
#300 = DIRECTION ( 'NONE',  ( 1.000000000000000000, 0.000000000000000000, 0.000000000000000000 ) ) ;
#301 = DIRECTION ( 'NONE',  ( -0.000000000000000000, -0.000000000000000000, -1.000000000000000000 ) ) ;
#302 = ORIENTED_EDGE ( 'NONE', *, *, #60, .T. ) ;
#303 = ADVANCED_FACE ( 'NONE', ( #54 ), #146, .T. ) ;
#304 = VECTOR ( 'NONE', #24, 1000.000000000000000 ) ;
#305 = EDGE_LOOP ( 'NONE', ( #329, #340, #299, #332 ) ) ;
#306 = DIRECTION ( 'NONE',  ( 0.000000000000000000, 0.000000000000000000, -1.000000000000000000 ) ) ;
#307 = DIRECTION ( 'NONE',  ( 8.673617379884035472E-17, 0.000000000000000000, 1.000000000000000000 ) ) ;
#308 =( GEOMETRIC_REPRESENTATION_CONTEXT ( 3 ) GLOBAL_UNCERTAINTY_ASSIGNED_CONTEXT ( ( #380 ) ) GLOBAL_UNIT_ASSIGNED_CONTEXT ( ( #126, #316, #351 ) ) REPRESENTATION_CONTEXT ( 'NONE', 'WORKASPACE' ) );
#309 = PRESENTATION_STYLE_ASSIGNMENT (( #279 ) ) ;
#310 = DIRECTION ( 'NONE',  ( 0.000000000000000000, 0.000000000000000000, 1.000000000000000000 ) ) ;
#311 = EDGE_CURVE ( 'NONE', #1, #360, #374, .T. ) ;
#312 = AXIS2_PLACEMENT_3D ( 'NONE', #269, #80, #326 ) ;
#313 = COLOUR_RGB ( '',0.05882352941176470507, 0.05882352941176470507, 0.05882352941176470507 ) ;
#314 = SURFACE_STYLE_FILL_AREA ( #250 ) ;
#315 = UNCERTAINTY_MEASURE_WITH_UNIT (LENGTH_MEASURE( 1.000000000000000082E-05 ), #401, 'distance_accuracy_value', 'NONE');
#316 =( NAMED_UNIT ( * ) PLANE_ANGLE_UNIT ( ) SI_UNIT ( $, .RADIAN. ) );
#317 = CARTESIAN_POINT ( 'NONE',  ( 2.500000000000000444, 0.7500000000000000000, 2.500000000000000444 ) ) ;
#318 =( GEOMETRIC_REPRESENTATION_CONTEXT ( 3 ) GLOBAL_UNCERTAINTY_ASSIGNED_CONTEXT ( ( #172 ) ) GLOBAL_UNIT_ASSIGNED_CONTEXT ( ( #103, #359, #322 ) ) REPRESENTATION_CONTEXT ( 'NONE', 'WORKASPACE' ) );
#319 = STYLED_ITEM ( 'NONE', ( #26 ), #283 ) ;
#320 = SURFACE_STYLE_USAGE ( .BOTH. , #72 ) ;
#321 = EDGE_LOOP ( 'NONE', ( #204, #18, #237, #391 ) ) ;
#322 =( NAMED_UNIT ( * ) SI_UNIT ( $, .STERADIAN. ) SOLID_ANGLE_UNIT ( ) );
#323 = EDGE_CURVE ( 'NONE', #137, #328, #187, .T. ) ;
#324 = COLOUR_RGB ( '',1.000000000000000000, 1.000000000000000000, 1.000000000000000000 ) ;
#325 = AXIS2_PLACEMENT_3D ( 'NONE', #131, #100, #167 ) ;
#326 = DIRECTION ( 'NONE',  ( -8.673617379884034239E-17, 0.000000000000000000, -1.000000000000000000 ) ) ;
#327 = DIRECTION ( 'NONE',  ( -0.000000000000000000, -1.000000000000000000, -0.000000000000000000 ) ) ;
#328 = VERTEX_POINT ( 'NONE', #345 ) ;
#329 = ORIENTED_EDGE ( 'NONE', *, *, #69, .F. ) ;
#330 = EDGE_CURVE ( 'NONE', #140, #85, #28, .T. ) ;
#331 = CARTESIAN_POINT ( 'NONE',  ( -2.499999999999999556, 0.000000000000000000, -2.499999999999999556 ) ) ;
#332 = ORIENTED_EDGE ( 'NONE', *, *, #158, .T. ) ;
#333 = DIRECTION ( 'NONE',  ( 0.000000000000000000, 1.000000000000000000, 0.000000000000000000 ) ) ;
#334 = VECTOR ( 'NONE', #300, 1000.000000000000000 ) ;
#335 = PRESENTATION_LAYER_ASSIGNMENT (  '', '', ( #319 ) ) ;
#336 =( NAMED_UNIT ( * ) PLANE_ANGLE_UNIT ( ) SI_UNIT ( $, .RADIAN. ) );
#337 = SURFACE_SIDE_STYLE ('',( #208 ) ) ;
#338 = FACE_OUTER_BOUND ( 'NONE', #55, .T. ) ;
#339 = ADVANCED_FACE ( 'NONE', ( #338 ), #278, .F. ) ;
#340 = ORIENTED_EDGE ( 'NONE', *, *, #378, .F. ) ;
#341 = FILL_AREA_STYLE_COLOUR ( '', #175 ) ;
#342 = STYLED_ITEM ( 'NONE', ( #309 ), #38 ) ;
#343 =( GEOMETRIC_REPRESENTATION_CONTEXT ( 3 ) GLOBAL_UNCERTAINTY_ASSIGNED_CONTEXT ( ( #315 ) ) GLOBAL_UNIT_ASSIGNED_CONTEXT ( ( #401, #148, #122 ) ) REPRESENTATION_CONTEXT ( 'NONE', 'WORKASPACE' ) );
#344 =( NAMED_UNIT ( * ) PLANE_ANGLE_UNIT ( ) SI_UNIT ( $, .RADIAN. ) );
#345 = CARTESIAN_POINT ( 'NONE',  ( -2.499999999999999112, 0.7500000000000000000, 2.500000000000000444 ) ) ;
#346 = SURFACE_SIDE_STYLE ('',( #191 ) ) ;
#347 = DIRECTION ( 'NONE',  ( 0.000000000000000000, 1.000000000000000000, 0.000000000000000000 ) ) ;
#348 = PRODUCT_RELATED_PRODUCT_CATEGORY ( 'part', '', ( #91 ) ) ;
#349 = MECHANICAL_DESIGN_GEOMETRIC_PRESENTATION_REPRESENTATION (  '', ( #319 ), #343 ) ;
#350 = APPLICATION_PROTOCOL_DEFINITION ( 'draft international standard', 'automotive_design', 1998, #229 ) ;
#351 =( NAMED_UNIT ( * ) SI_UNIT ( $, .STERADIAN. ) SOLID_ANGLE_UNIT ( ) );
#352 = PLANE ( 'NONE',  #108 ) ;
#353 = DIRECTION ( 'NONE',  ( -1.000000000000000000, 0.000000000000000000, -0.000000000000000000 ) ) ;
#354 = FILL_AREA_STYLE_COLOUR ( '', #313 ) ;
#355 = CIRCLE ( 'NONE', #159, 0.2000000000000000944 ) ;
#356 = VECTOR ( 'NONE', #307, 1000.000000000000000 ) ;
#357 = UNCERTAINTY_MEASURE_WITH_UNIT (LENGTH_MEASURE( 1.000000000000000082E-05 ), #244, 'distance_accuracy_value', 'NONE');
#358 = DIRECTION ( 'NONE',  ( -0.000000000000000000, -1.000000000000000000, -0.000000000000000000 ) ) ;
#359 =( NAMED_UNIT ( * ) PLANE_ANGLE_UNIT ( ) SI_UNIT ( $, .RADIAN. ) );
#360 = VERTEX_POINT ( 'NONE', #162 ) ;
#361 = ORIENTED_EDGE ( 'NONE', *, *, #78, .T. ) ;
#362 =( GEOMETRIC_REPRESENTATION_CONTEXT ( 3 ) GLOBAL_UNCERTAINTY_ASSIGNED_CONTEXT ( ( #258 ) ) GLOBAL_UNIT_ASSIGNED_CONTEXT ( ( #367, #336, #149 ) ) REPRESENTATION_CONTEXT ( 'NONE', 'WORKASPACE' ) );
#363 = LINE ( 'NONE', #142, #5 ) ;
#364 = ORIENTED_EDGE ( 'NONE', *, *, #158, .F. ) ;
#365 = VERTEX_POINT ( 'NONE', #92 ) ;
#366 = LINE ( 'NONE', #331, #73 ) ;
#367 =( LENGTH_UNIT ( ) NAMED_UNIT ( * ) SI_UNIT ( .MILLI., .METRE. ) );
#368 =( NAMED_UNIT ( * ) SI_UNIT ( $, .STERADIAN. ) SOLID_ANGLE_UNIT ( ) );
#369 = SURFACE_STYLE_USAGE ( .BOTH. , #396 ) ;
#370 = CARTESIAN_POINT ( 'NONE',  ( -1.749999999999999556, 0.7600000000000000089, -1.549999999999999600 ) ) ;
#371 = MECHANICAL_DESIGN_GEOMETRIC_PRESENTATION_REPRESENTATION (  '', ( #261 ), #4 ) ;
#372 = PRESENTATION_LAYER_ASSIGNMENT (  '', '', ( #296 ) ) ;
#373 = SURFACE_STYLE_USAGE ( .BOTH. , #337 ) ;
#374 = LINE ( 'NONE', #160, #388 ) ;
#375 = EDGE_LOOP ( 'NONE', ( #57, #120, #25, #268 ) ) ;
#376 = DIRECTION ( 'NONE',  ( 0.000000000000000000, 0.000000000000000000, -1.000000000000000000 ) ) ;
#377 = CARTESIAN_POINT ( 'NONE',  ( -1.749999999999999556, 0.7600000000000000089, -1.749999999999999556 ) ) ;
#378 = EDGE_CURVE ( 'NONE', #1, #273, #198, .T. ) ;
#379 = FILL_AREA_STYLE_COLOUR ( '', #136 ) ;
#380 = UNCERTAINTY_MEASURE_WITH_UNIT (LENGTH_MEASURE( 1.000000000000000082E-05 ), #126, 'distance_accuracy_value', 'NONE');
#381 = AXIS2_PLACEMENT_3D ( 'NONE', #50, #105, #171 ) ;
#382 = STYLED_ITEM ( 'NONE', ( #61 ), #303 ) ;
#383 = SURFACE_SIDE_STYLE ('',( #292 ) ) ;
#384 = APPLICATION_PROTOCOL_DEFINITION ( 'draft international standard', 'automotive_design', 1998, #154 ) ;
#385 = PRESENTATION_STYLE_ASSIGNMENT (( #10 ) ) ;
#386 = SURFACE_SIDE_STYLE ('',( #133 ) ) ;
#387 = COLOUR_RGB ( '',0.05882352941176470507, 0.05882352941176470507, 0.05882352941176470507 ) ;
#388 = VECTOR ( 'NONE', #277, 1000.000000000000000 ) ;
#389 = ADVANCED_FACE ( 'NONE', ( #214 ), #66, .F. ) ;
#390 = FACE_OUTER_BOUND ( 'NONE', #321, .T. ) ;
#391 = ORIENTED_EDGE ( 'NONE', *, *, #220, .T. ) ;
#392 = CARTESIAN_POINT ( 'NONE',  ( -1.749999999999999556, 0.7500000000000000000, -1.749999999999999556 ) ) ;
#393 = ORIENTED_EDGE ( 'NONE', *, *, #330, .F. ) ;
#394 =( NAMED_UNIT ( * ) SI_UNIT ( $, .STERADIAN. ) SOLID_ANGLE_UNIT ( ) );
#395 = PRESENTATION_LAYER_ASSIGNMENT (  '', '', ( #235 ) ) ;
#396 = SURFACE_SIDE_STYLE ('',( #21 ) ) ;
#397 = SURFACE_SIDE_STYLE ('',( #272 ) ) ;
#398 = ADVANCED_BREP_SHAPE_REPRESENTATION ( 'aw20216', ( #283, #325 ), #52 ) ;
#399 = ORIENTED_EDGE ( 'NONE', *, *, #60, .F. ) ;
#400 = DIRECTION ( 'NONE',  ( 0.000000000000000000, 1.000000000000000000, 0.000000000000000000 ) ) ;
#401 =( LENGTH_UNIT ( ) NAMED_UNIT ( * ) SI_UNIT ( .MILLI., .METRE. ) );
#402 = ORIENTED_EDGE ( 'NONE', *, *, #69, .T. ) ;
ENDSEC;
END-ISO-10303-21;
