ISO-10303-21;
HEADER;
FILE_DESCRIPTION (( 'STEP AP214' ),
    '1' );
FILE_NAME ('sd.STEP',
    '2025-12-08T13:30:06',
    ( '' ),
    ( '' ),
    'SwSTEP 2.0',
    'SolidWorks 2025',
    '' );
FILE_SCHEMA (( 'AUTOMOTIVE_DESIGN' ));
ENDSEC;

DATA;
#1 = PRODUCT_RELATED_PRODUCT_CATEGORY ( 'part', '', ( #299 ) ) ;
#2 = SHAPE_DEFINITION_REPRESENTATION ( #287, #29 ) ;
#3 = STYLED_ITEM ( 'NONE', ( #448 ), #349 ) ;
#4 = LINE ( 'NONE', #355, #91 ) ;
#5 = AXIS2_PLACEMENT_3D ( 'NONE', #647, #488, #199 ) ;
#6 = ADVANCED_FACE ( 'NONE', ( #84 ), #292, .F. ) ;
#7 = VECTOR ( 'NONE', #573, 1000.000000000000000 ) ;
#8 = EDGE_CURVE ( 'NONE', #274, #335, #293, .T. ) ;
#9 = SURFACE_SIDE_STYLE ('',( #92 ) ) ;
#10 = ORIENTED_EDGE ( 'NONE', *, *, #143, .T. ) ;
#11 = CARTESIAN_POINT ( 'NONE',  ( -7.375000000000001776, 0.000000000000000000, 6.250000000000001776 ) ) ;
#12 = ORIENTED_EDGE ( 'NONE', *, *, #49, .F. ) ;
#13 = FACE_OUTER_BOUND ( 'NONE', #469, .T. ) ;
#14 = VERTEX_POINT ( 'NONE', #544 ) ;
#15 = VECTOR ( 'NONE', #649, 1000.000000000000000 ) ;
#16 = DIRECTION ( 'NONE',  ( -0.000000000000000000, -1.000000000000000000, -0.000000000000000000 ) ) ;
#17 = ORIENTED_EDGE ( 'NONE', *, *, #613, .F. ) ;
#18 = LINE ( 'NONE', #336, #340 ) ;
#19 = VECTOR ( 'NONE', #409, 1000.000000000000000 ) ;
#20 = LINE ( 'NONE', #321, #186 ) ;
#21 = ORIENTED_EDGE ( 'NONE', *, *, #152, .F. ) ;
#22 = DIRECTION ( 'NONE',  ( 0.000000000000000000, -0.000000000000000000, 1.000000000000000000 ) ) ;
#23 = EDGE_CURVE ( 'NONE', #274, #232, #440, .T. ) ;
#24 = VERTEX_POINT ( 'NONE', #80 ) ;
#25 = CARTESIAN_POINT ( 'NONE',  ( 4.374999999999998224, 0.000000000000000000, 7.250000000000000888 ) ) ;
#26 = PRESENTATION_STYLE_ASSIGNMENT (( #122 ) ) ;
#27 = VERTEX_POINT ( 'NONE', #297 ) ;
#28 = CARTESIAN_POINT ( 'NONE',  ( 4.374999999999998224, 2.000000000000000000, 7.250000000000000888 ) ) ;
#29 = ADVANCED_BREP_SHAPE_REPRESENTATION ( 'sd', ( #632, #200 ), #405 ) ;
#30 = DIRECTION ( 'NONE',  ( -0.000000000000000000, -0.000000000000000000, 1.000000000000000000 ) ) ;
#31 = COLOUR_RGB ( '',0.8980392156862745390, 0.9176470588235293713, 0.9294117647058823817 ) ;
#32 = EDGE_CURVE ( 'NONE', #184, #432, #452, .T. ) ;
#33 = DIRECTION ( 'NONE',  ( 0.000000000000000000, 0.000000000000000000, -1.000000000000000000 ) ) ;
#34 =( NAMED_UNIT ( * ) SI_UNIT ( $, .STERADIAN. ) SOLID_ANGLE_UNIT ( ) );
#35 = CARTESIAN_POINT ( 'NONE',  ( 1.000000000000001998, 0.000000000000000000, 6.250000000000000000 ) ) ;
#36 = UNCERTAINTY_MEASURE_WITH_UNIT (LENGTH_MEASURE( 1.000000000000000082E-05 ), #47, 'distance_accuracy_value', 'NONE');
#37 = CARTESIAN_POINT ( 'NONE',  ( 1.000000000000003331, 1.500000000000001332, 12.44531249999997868 ) ) ;
#38 = SURFACE_STYLE_USAGE ( .BOTH. , #490 ) ;
#39 = FILL_AREA_STYLE ('',( #148 ) ) ;
#40 = DIRECTION ( 'NONE',  ( 0.000000000000000000, 0.000000000000000000, 1.000000000000000000 ) ) ;
#41 = CARTESIAN_POINT ( 'NONE',  ( 7.374999999999997335, 2.000000000000000000, -7.249999999999999112 ) ) ;
#42 = SURFACE_STYLE_USAGE ( .BOTH. , #386 ) ;
#43 = SURFACE_SIDE_STYLE ('',( #301 ) ) ;
#44 = STYLED_ITEM ( 'NONE', ( #599 ), #618 ) ;
#45 = SURFACE_STYLE_USAGE ( .BOTH. , #591 ) ;
#46 = DIRECTION ( 'NONE',  ( -0.000000000000000000, 1.000000000000000000, -0.000000000000000000 ) ) ;
#47 =( LENGTH_UNIT ( ) NAMED_UNIT ( * ) SI_UNIT ( .MILLI., .METRE. ) );
#48 = LINE ( 'NONE', #158, #464 ) ;
#49 = EDGE_CURVE ( 'NONE', #335, #535, #588, .T. ) ;
#50 = FACE_OUTER_BOUND ( 'NONE', #124, .T. ) ;
#51 = PRODUCT_CONTEXT ( 'NONE', #626, 'mechanical' ) ;
#52 = ORIENTED_EDGE ( 'NONE', *, *, #601, .T. ) ;
#53 = CARTESIAN_POINT ( 'NONE',  ( -7.375000000000001776, 2.000000000000000000, 6.250000000000001776 ) ) ;
#54 = VECTOR ( 'NONE', #298, 1000.000000000000000 ) ;
#55 = ADVANCED_FACE ( 'NONE', ( #652 ), #289, .F. ) ;
#56 = EDGE_CURVE ( 'NONE', #225, #169, #212, .T. ) ;
#57 = PRESENTATION_STYLE_ASSIGNMENT (( #570 ) ) ;
#58 = ORIENTED_EDGE ( 'NONE', *, *, #546, .T. ) ;
#59 = DIRECTION ( 'NONE',  ( 0.000000000000000000, -0.000000000000000000, 1.000000000000000000 ) ) ;
#60 = STYLED_ITEM ( 'NONE', ( #26 ), #202 ) ;
#61 = VERTEX_POINT ( 'NONE', #462 ) ;
#62 = DIRECTION ( 'NONE',  ( -1.000000000000000000, -0.000000000000000000, 2.071311613106634413E-16 ) ) ;
#63 = EDGE_LOOP ( 'NONE', ( #17, #630, #115, #282, #240, #119, #575, #517 ) ) ;
#64 = DIRECTION ( 'NONE',  ( -0.000000000000000000, 1.000000000000000000, -0.000000000000000000 ) ) ;
#65 = PRESENTATION_LAYER_ASSIGNMENT (  '', '', ( #483 ) ) ;
#66 = VERTEX_POINT ( 'NONE', #404 ) ;
#67 = EDGE_CURVE ( 'NONE', #427, #61, #662, .T. ) ;
#68 = LINE ( 'NONE', #278, #378 ) ;
#69 = ORIENTED_EDGE ( 'NONE', *, *, #574, .F. ) ;
#70 = UNCERTAINTY_MEASURE_WITH_UNIT (LENGTH_MEASURE( 1.000000000000000082E-05 ), #327, 'distance_accuracy_value', 'NONE');
#71 = SURFACE_SIDE_STYLE ('',( #290 ) ) ;
#72 = ORIENTED_EDGE ( 'NONE', *, *, #143, .F. ) ;
#73 = LINE ( 'NONE', #288, #319 ) ;
#74 =( NAMED_UNIT ( * ) SI_UNIT ( $, .STERADIAN. ) SOLID_ANGLE_UNIT ( ) );
#75 =( NAMED_UNIT ( * ) SI_UNIT ( $, .STERADIAN. ) SOLID_ANGLE_UNIT ( ) );
#76 = ORIENTED_EDGE ( 'NONE', *, *, #565, .T. ) ;
#77 = PLANE ( 'NONE',  #510 ) ;
#78 = COLOUR_RGB ( '',0.8980392156862745390, 0.9176470588235293713, 0.9294117647058823817 ) ;
#79 = FILL_AREA_STYLE ('',( #495 ) ) ;
#80 = CARTESIAN_POINT ( 'NONE',  ( 7.374999999999999112, 0.000000000000000000, 7.250000000000000888 ) ) ;
#81 = UNCERTAINTY_MEASURE_WITH_UNIT (LENGTH_MEASURE( 1.000000000000000082E-05 ), #389, 'distance_accuracy_value', 'NONE');
#82 = CARTESIAN_POINT ( 'NONE',  ( 6.874999999999998224, 1.500000000000001332, -5.749999999999998224 ) ) ;
#83 = UNCERTAINTY_MEASURE_WITH_UNIT (LENGTH_MEASURE( 1.000000000000000082E-05 ), #564, 'distance_accuracy_value', 'NONE');
#84 = FACE_OUTER_BOUND ( 'NONE', #512, .T. ) ;
#85 = STYLED_ITEM ( 'NONE', ( #209 ), #632 ) ;
#86 = PLANE ( 'NONE',  #206 ) ;
#87 = EDGE_CURVE ( 'NONE', #27, #14, #501, .T. ) ;
#88 =( NAMED_UNIT ( * ) PLANE_ANGLE_UNIT ( ) SI_UNIT ( $, .RADIAN. ) );
#89 = DIRECTION ( 'NONE',  ( -8.673617379884037444E-16, -1.000000000000000000, 1.796576440659734692E-31 ) ) ;
#90 = PLANE ( 'NONE',  #309 ) ;
#91 = VECTOR ( 'NONE', #93, 1000.000000000000000 ) ;
#92 = SURFACE_STYLE_FILL_AREA ( #198 ) ;
#93 = DIRECTION ( 'NONE',  ( -1.196361017915039486E-16, -0.000000000000000000, -1.000000000000000000 ) ) ;
#94 = DIRECTION ( 'NONE',  ( -0.000000000000000000, -1.000000000000000000, -0.000000000000000000 ) ) ;
#95 =( GEOMETRIC_REPRESENTATION_CONTEXT ( 3 ) GLOBAL_UNCERTAINTY_ASSIGNED_CONTEXT ( ( #330 ) ) GLOBAL_UNIT_ASSIGNED_CONTEXT ( ( #238, #430, #74 ) ) REPRESENTATION_CONTEXT ( 'NONE', 'WORKASPACE' ) );
#96 = ORIENTED_EDGE ( 'NONE', *, *, #8, .F. ) ;
#97 = SURFACE_SIDE_STYLE ('',( #602 ) ) ;
#98 = DIRECTION ( 'NONE',  ( 0.000000000000000000, 0.000000000000000000, -1.000000000000000000 ) ) ;
#99 = SURFACE_SIDE_STYLE ('',( #663 ) ) ;
#100 = DIRECTION ( 'NONE',  ( 0.000000000000000000, 1.000000000000000000, -0.000000000000000000 ) ) ;
#101 = CARTESIAN_POINT ( 'NONE',  ( -7.375000000000001776, 0.000000000000000000, -7.249999999999999112 ) ) ;
#102 =( GEOMETRIC_REPRESENTATION_CONTEXT ( 3 ) GLOBAL_UNCERTAINTY_ASSIGNED_CONTEXT ( ( #631 ) ) GLOBAL_UNIT_ASSIGNED_CONTEXT ( ( #609, #111, #612 ) ) REPRESENTATION_CONTEXT ( 'NONE', 'WORKASPACE' ) );
#103 = VERTEX_POINT ( 'NONE', #515 ) ;
#104 =( GEOMETRIC_REPRESENTATION_CONTEXT ( 3 ) GLOBAL_UNCERTAINTY_ASSIGNED_CONTEXT ( ( #81 ) ) GLOBAL_UNIT_ASSIGNED_CONTEXT ( ( #389, #310, #561 ) ) REPRESENTATION_CONTEXT ( 'NONE', 'WORKASPACE' ) );
#105 = DIRECTION ( 'NONE',  ( 1.000000000000000000, 0.000000000000000000, -1.196361017915039732E-16 ) ) ;
#106 = EDGE_CURVE ( 'NONE', #24, #538, #4, .T. ) ;
#107 = ORIENTED_EDGE ( 'NONE', *, *, #56, .T. ) ;
#108 = VECTOR ( 'NONE', #589, 1000.000000000000000 ) ;
#109 = DIRECTION ( 'NONE',  ( 0.000000000000000000, -1.000000000000000000, -0.000000000000000000 ) ) ;
#110 = CARTESIAN_POINT ( 'NONE',  ( 7.374999999999999112, 2.000000000000000000, 7.250000000000000888 ) ) ;
#111 =( NAMED_UNIT ( * ) PLANE_ANGLE_UNIT ( ) SI_UNIT ( $, .RADIAN. ) );
#112 = ORIENTED_EDGE ( 'NONE', *, *, #472, .F. ) ;
#113 = LINE ( 'NONE', #363, #7 ) ;
#114 = VECTOR ( 'NONE', #496, 1000.000000000000000 ) ;
#115 = ORIENTED_EDGE ( 'NONE', *, *, #546, .F. ) ;
#116 = SURFACE_STYLE_FILL_AREA ( #418 ) ;
#117 = ORIENTED_EDGE ( 'NONE', *, *, #194, .T. ) ;
#118 = PLANE ( 'NONE',  #227 ) ;
#119 = ORIENTED_EDGE ( 'NONE', *, *, #23, .F. ) ;
#120 = PRODUCT_DEFINITION ( 'UNKNOWN', '', #223, #600 ) ;
#121 = FACE_OUTER_BOUND ( 'NONE', #63, .T. ) ;
#122 = SURFACE_STYLE_USAGE ( .BOTH. , #480 ) ;
#123 = AXIS2_PLACEMENT_3D ( 'NONE', #534, #423, #22 ) ;
#124 = EDGE_LOOP ( 'NONE', ( #466, #320, #76, #242, #478, #382 ) ) ;
#125 = DIRECTION ( 'NONE',  ( -1.000000000000000000, -0.000000000000000000, -0.000000000000000000 ) ) ;
#126 = FACE_OUTER_BOUND ( 'NONE', #379, .T. ) ;
#127 = ORIENTED_EDGE ( 'NONE', *, *, #503, .F. ) ;
#128 = UNCERTAINTY_MEASURE_WITH_UNIT (LENGTH_MEASURE( 1.000000000000000082E-05 ), #344, 'distance_accuracy_value', 'NONE');
#129 = LINE ( 'NONE', #25, #454 ) ;
#130 = MECHANICAL_DESIGN_GEOMETRIC_PRESENTATION_REPRESENTATION (  '', ( #377 ), #104 ) ;
#131 = DIRECTION ( 'NONE',  ( -1.000000000000000000, 0.000000000000000000, 2.071311613106634660E-16 ) ) ;
#132 = ORIENTED_EDGE ( 'NONE', *, *, #244, .F. ) ;
#133 = LINE ( 'NONE', #541, #406 ) ;
#134 = CARTESIAN_POINT ( 'NONE',  ( -6.875000000000000888, 0.5000000000000013323, -5.749999999999998224 ) ) ;
#135 = DIRECTION ( 'NONE',  ( -0.000000000000000000, 1.000000000000000000, -0.000000000000000000 ) ) ;
#136 = SURFACE_STYLE_FILL_AREA ( #182 ) ;
#137 = PRESENTATION_STYLE_ASSIGNMENT (( #45 ) ) ;
#138 = CARTESIAN_POINT ( 'NONE',  ( 6.875000000000000888, 1.500000000000001332, 6.249999999999998224 ) ) ;
#139 = AXIS2_PLACEMENT_3D ( 'NONE', #505, #269, #165 ) ;
#140 = VECTOR ( 'NONE', #236, 1000.000000000000000 ) ;
#141 = SURFACE_STYLE_FILL_AREA ( #337 ) ;
#142 = PRESENTATION_STYLE_ASSIGNMENT (( #247 ) ) ;
#143 = EDGE_CURVE ( 'NONE', #347, #370, #48, .T. ) ;
#144 = VECTOR ( 'NONE', #596, 1000.000000000000000 ) ;
#145 = FILL_AREA_STYLE_COLOUR ( '', #424 ) ;
#146 = FILL_AREA_STYLE ('',( #497 ) ) ;
#147 = FACE_OUTER_BOUND ( 'NONE', #271, .T. ) ;
#148 = FILL_AREA_STYLE_COLOUR ( '', #399 ) ;
#149 = ORIENTED_EDGE ( 'NONE', *, *, #87, .T. ) ;
#150 = MECHANICAL_DESIGN_GEOMETRIC_PRESENTATION_REPRESENTATION (  '', ( #44 ), #390 ) ;
#151 = MECHANICAL_DESIGN_GEOMETRIC_PRESENTATION_REPRESENTATION (  '', ( #60 ), #508 ) ;
#152 = EDGE_CURVE ( 'NONE', #432, #535, #311, .T. ) ;
#153 = MECHANICAL_DESIGN_GEOMETRIC_PRESENTATION_REPRESENTATION (  '', ( #353 ), #551 ) ;
#154 = EDGE_CURVE ( 'NONE', #265, #61, #566, .T. ) ;
#155 = CARTESIAN_POINT ( 'NONE',  ( -6.875000000000000000, 1.500000000000001332, 6.250000000000001776 ) ) ;
#156 = CARTESIAN_POINT ( 'NONE',  ( 1.000000000000001998, 0.5000000000000013323, 6.250000000000000000 ) ) ;
#157 = APPLICATION_CONTEXT ( 'automotive_design' ) ;
#158 = CARTESIAN_POINT ( 'NONE',  ( 6.874999999999998224, 1.500000000000001332, -5.749999999999998224 ) ) ;
#159 = APPLICATION_PROTOCOL_DEFINITION ( 'draft international standard', 'automotive_design', 1998, #626 ) ;
#160 = FILL_AREA_STYLE ('',( #263 ) ) ;
#161 = AXIS2_PLACEMENT_3D ( 'NONE', #376, #586, #131 ) ;
#162 = CARTESIAN_POINT ( 'NONE',  ( -7.375000000000001776, 2.000000000000000000, -7.249999999999999112 ) ) ;
#163 = VECTOR ( 'NONE', #661, 1000.000000000000000 ) ;
#164 =( NAMED_UNIT ( * ) PLANE_ANGLE_UNIT ( ) SI_UNIT ( $, .RADIAN. ) );
#165 = DIRECTION ( 'NONE',  ( 0.000000000000000000, 0.000000000000000000, 1.000000000000000000 ) ) ;
#166 = FILL_AREA_STYLE_COLOUR ( '', #31 ) ;
#167 = ORIENTED_EDGE ( 'NONE', *, *, #601, .F. ) ;
#168 =( NAMED_UNIT ( * ) SI_UNIT ( $, .STERADIAN. ) SOLID_ANGLE_UNIT ( ) );
#169 = VERTEX_POINT ( 'NONE', #314 ) ;
#170 = CARTESIAN_POINT ( 'NONE',  ( 6.874999999999998224, 0.5000000000000013323, -5.749999999999998224 ) ) ;
#171 = MECHANICAL_DESIGN_GEOMETRIC_PRESENTATION_REPRESENTATION (  '', ( #636 ), #447 ) ;
#172 = ADVANCED_FACE ( 'NONE', ( #50 ), #615, .F. ) ;
#173 = ORIENTED_EDGE ( 'NONE', *, *, #574, .T. ) ;
#174 = PLANE ( 'NONE',  #558 ) ;
#175 = PRESENTATION_LAYER_ASSIGNMENT (  '', '', ( #429 ) ) ;
#176 = CARTESIAN_POINT ( 'NONE',  ( 0.000000000000000000, 2.000000000000000000, 0.000000000000000000 ) ) ;
#177 = ORIENTED_EDGE ( 'NONE', *, *, #67, .F. ) ;
#178 = UNCERTAINTY_MEASURE_WITH_UNIT (LENGTH_MEASURE( 1.000000000000000082E-05 ), #341, 'distance_accuracy_value', 'NONE');
#179 = MECHANICAL_DESIGN_GEOMETRIC_PRESENTATION_REPRESENTATION (  '', ( #85 ), #102 ) ;
#180 = EDGE_LOOP ( 'NONE', ( #12, #96, #338, #190 ) ) ;
#181 = EDGE_CURVE ( 'NONE', #14, #498, #204, .T. ) ;
#182 = FILL_AREA_STYLE ('',( #188 ) ) ;
#183 = PLANE ( 'NONE',  #161 ) ;
#184 = VERTEX_POINT ( 'NONE', #155 ) ;
#185 =( GEOMETRIC_REPRESENTATION_CONTEXT ( 3 ) GLOBAL_UNCERTAINTY_ASSIGNED_CONTEXT ( ( #36 ) ) GLOBAL_UNIT_ASSIGNED_CONTEXT ( ( #47, #459, #457 ) ) REPRESENTATION_CONTEXT ( 'NONE', 'WORKASPACE' ) );
#186 = VECTOR ( 'NONE', #16, 1000.000000000000000 ) ;
#187 = CARTESIAN_POINT ( 'NONE',  ( 1.000000000000003331, 0.000000000000000000, 12.44531249999997868 ) ) ;
#188 = FILL_AREA_STYLE_COLOUR ( '', #533 ) ;
#189 = SURFACE_SIDE_STYLE ('',( #141 ) ) ;
#190 = ORIENTED_EDGE ( 'NONE', *, *, #565, .F. ) ;
#191 = UNCERTAINTY_MEASURE_WITH_UNIT (LENGTH_MEASURE( 1.000000000000000082E-05 ), #623, 'distance_accuracy_value', 'NONE');
#192 = CARTESIAN_POINT ( 'NONE',  ( 6.874999999999998224, 1.500000000000001332, -5.749999999999998224 ) ) ;
#193 = MECHANICAL_DESIGN_GEOMETRIC_PRESENTATION_REPRESENTATION (  '', ( #659 ), #537 ) ;
#194 = EDGE_CURVE ( 'NONE', #14, #628, #608, .T. ) ;
#195 =( LENGTH_UNIT ( ) NAMED_UNIT ( * ) SI_UNIT ( .MILLI., .METRE. ) );
#196 = PRESENTATION_LAYER_ASSIGNMENT (  '', '', ( #597 ) ) ;
#197 = LINE ( 'NONE', #351, #54 ) ;
#198 = FILL_AREA_STYLE ('',( #655 ) ) ;
#199 = DIRECTION ( 'NONE',  ( -8.673617379884037444E-16, -1.000000000000000000, 0.000000000000000000 ) ) ;
#200 = AXIS2_PLACEMENT_3D ( 'NONE', #262, #403, #264 ) ;
#201 = CARTESIAN_POINT ( 'NONE',  ( 7.374999999999997335, 0.000000000000000000, -7.249999999999999112 ) ) ;
#202 = ADVANCED_FACE ( 'NONE', ( #126 ), #118, .T. ) ;
#203 = CARTESIAN_POINT ( 'NONE',  ( 1.000000000000003331, 0.000000000000000000, 12.44531249999997868 ) ) ;
#204 = LINE ( 'NONE', #208, #554 ) ;
#205 = DIRECTION ( 'NONE',  ( 0.000000000000000000, 0.000000000000000000, -1.000000000000000000 ) ) ;
#206 = AXIS2_PLACEMENT_3D ( 'NONE', #567, #105, #458 ) ;
#207 = COLOUR_RGB ( '',0.8980392156862745390, 0.9176470588235293713, 0.9294117647058823817 ) ;
#208 = CARTESIAN_POINT ( 'NONE',  ( -7.375000000000001776, 2.000000000000000000, -7.249999999999999112 ) ) ;
#209 = PRESENTATION_STYLE_ASSIGNMENT (( #622 ) ) ;
#210 = DIRECTION ( 'NONE',  ( 1.000000000000000000, -0.000000000000000000, -0.000000000000000000 ) ) ;
#211 = STYLED_ITEM ( 'NONE', ( #384 ), #461 ) ;
#212 = LINE ( 'NONE', #617, #163 ) ;
#213 = EDGE_CURVE ( 'NONE', #66, #24, #518, .T. ) ;
#214 = MECHANICAL_DESIGN_GEOMETRIC_PRESENTATION_REPRESENTATION (  '', ( #334 ), #185 ) ;
#215 = CARTESIAN_POINT ( 'NONE',  ( 1.000000000000001998, 0.000000000000000000, 6.250000000000000000 ) ) ;
#216 = AXIS2_PLACEMENT_3D ( 'NONE', #563, #100, #257 ) ;
#217 =( NAMED_UNIT ( * ) SI_UNIT ( $, .STERADIAN. ) SOLID_ANGLE_UNIT ( ) );
#218 =( LENGTH_UNIT ( ) NAMED_UNIT ( * ) SI_UNIT ( .MILLI., .METRE. ) );
#219 = VERTEX_POINT ( 'NONE', #11 ) ;
#220 = LINE ( 'NONE', #415, #509 ) ;
#221 = ORIENTED_EDGE ( 'NONE', *, *, #266, .F. ) ;
#222 = CYLINDRICAL_SURFACE ( 'NONE', #365, 6.195312499999980460 ) ;
#223 = PRODUCT_DEFINITION_FORMATION_WITH_SPECIFIED_SOURCE ( 'ANY', '', #299, .NOT_KNOWN. ) ;
#224 = CARTESIAN_POINT ( 'NONE',  ( 4.374999999999998224, 0.000000000000000000, 7.250000000000000888 ) ) ;
#225 = VERTEX_POINT ( 'NONE', #231 ) ;
#226 = FACE_OUTER_BOUND ( 'NONE', #562, .T. ) ;
#227 = AXIS2_PLACEMENT_3D ( 'NONE', #176, #525, #59 ) ;
#228 = ORIENTED_EDGE ( 'NONE', *, *, #49, .T. ) ;
#229 = FACE_OUTER_BOUND ( 'NONE', #557, .T. ) ;
#230 = COLOUR_RGB ( '',0.8980392156862745390, 0.9176470588235293713, 0.9294117647058823817 ) ;
#231 = CARTESIAN_POINT ( 'NONE',  ( 6.874999999999998224, 0.5000000000000013323, -5.749999999999998224 ) ) ;
#232 = VERTEX_POINT ( 'NONE', #528 ) ;
#233 = UNCERTAINTY_MEASURE_WITH_UNIT (LENGTH_MEASURE( 1.000000000000000082E-05 ), #318, 'distance_accuracy_value', 'NONE');
#234 = LINE ( 'NONE', #434, #108 ) ;
#235 = COLOUR_RGB ( '',0.8980392156862745390, 0.9176470588235293713, 0.9294117647058823817 ) ;
#236 = DIRECTION ( 'NONE',  ( -0.000000000000000000, -1.000000000000000000, -0.000000000000000000 ) ) ;
#237 = EDGE_LOOP ( 'NONE', ( #250, #504, #522, #532 ) ) ;
#238 =( LENGTH_UNIT ( ) NAMED_UNIT ( * ) SI_UNIT ( .MILLI., .METRE. ) );
#239 = FACE_OUTER_BOUND ( 'NONE', #237, .T. ) ;
#240 = ORIENTED_EDGE ( 'NONE', *, *, #592, .F. ) ;
#241 = DIRECTION ( 'NONE',  ( -1.000000000000000000, 0.000000000000000000, 0.000000000000000000 ) ) ;
#242 = ORIENTED_EDGE ( 'NONE', *, *, #592, .T. ) ;
#243 = CARTESIAN_POINT ( 'NONE',  ( -7.375000000000000888, 2.000000000000000000, 7.250000000000000888 ) ) ;
#244 = EDGE_CURVE ( 'NONE', #103, #184, #220, .T. ) ;
#245 = PRESENTATION_STYLE_ASSIGNMENT (( #38 ) ) ;
#246 =( NAMED_UNIT ( * ) SI_UNIT ( $, .STERADIAN. ) SOLID_ANGLE_UNIT ( ) );
#247 = SURFACE_STYLE_USAGE ( .BOTH. , #550 ) ;
#248 = FILL_AREA_STYLE_COLOUR ( '', #422 ) ;
#249 = AXIS2_PLACEMENT_3D ( 'NONE', #41, #486, #594 ) ;
#250 = ORIENTED_EDGE ( 'NONE', *, *, #426, .T. ) ;
#251 =( NAMED_UNIT ( * ) SI_UNIT ( $, .STERADIAN. ) SOLID_ANGLE_UNIT ( ) );
#252 = COLOUR_RGB ( '',0.8980392156862745390, 0.9176470588235293713, 0.9294117647058823817 ) ;
#253 = EDGE_CURVE ( 'NONE', #66, #27, #113, .T. ) ;
#254 = MECHANICAL_DESIGN_GEOMETRIC_PRESENTATION_REPRESENTATION (  '', ( #429 ), #665 ) ;
#255 = CARTESIAN_POINT ( 'NONE',  ( 1.000000000000003331, 0.5000000000000013323, 12.44531249999997868 ) ) ;
#256 = CARTESIAN_POINT ( 'NONE',  ( 6.874999999999998224, 1.500000000000001332, 7.250000000000000888 ) ) ;
#257 = DIRECTION ( 'NONE',  ( 0.000000000000000000, 0.000000000000000000, -1.000000000000000000 ) ) ;
#258 = FILL_AREA_STYLE_COLOUR ( '', #235 ) ;
#259 = ORIENTED_EDGE ( 'NONE', *, *, #360, .F. ) ;
#260 =( NAMED_UNIT ( * ) SI_UNIT ( $, .STERADIAN. ) SOLID_ANGLE_UNIT ( ) );
#261 = SURFACE_STYLE_FILL_AREA ( #160 ) ;
#262 = CARTESIAN_POINT ( 'NONE',  ( 0.000000000000000000, 0.000000000000000000, 0.000000000000000000 ) ) ;
#263 = FILL_AREA_STYLE_COLOUR ( '', #252 ) ;
#264 = DIRECTION ( 'NONE',  ( 1.000000000000000000, 0.000000000000000000, 0.000000000000000000 ) ) ;
#265 = VERTEX_POINT ( 'NONE', #333 ) ;
#266 = EDGE_CURVE ( 'NONE', #347, #103, #68, .T. ) ;
#267 = VECTOR ( 'NONE', #653, 1000.000000000000000 ) ;
#268 =( NAMED_UNIT ( * ) PLANE_ANGLE_UNIT ( ) SI_UNIT ( $, .RADIAN. ) );
#269 = DIRECTION ( 'NONE',  ( -0.000000000000000000, 1.000000000000000000, -0.000000000000000000 ) ) ;
#270 = AXIS2_PLACEMENT_3D ( 'NONE', #357, #109, #98 ) ;
#271 = EDGE_LOOP ( 'NONE', ( #325, #595, #276, #364, #307, #112 ) ) ;
#272 = EDGE_CURVE ( 'NONE', #27, #538, #20, .T. ) ;
#273 = FILL_AREA_STYLE_COLOUR ( '', #331 ) ;
#274 = VERTEX_POINT ( 'NONE', #224 ) ;
#275 = DIRECTION ( 'NONE',  ( 1.196361017915039486E-16, 0.000000000000000000, 1.000000000000000000 ) ) ;
#276 = ORIENTED_EDGE ( 'NONE', *, *, #633, .F. ) ;
#277 = PRESENTATION_STYLE_ASSIGNMENT (( #519 ) ) ;
#278 = CARTESIAN_POINT ( 'NONE',  ( 6.874999999999998224, 1.500000000000001332, -5.749999999999998224 ) ) ;
#279 = EDGE_LOOP ( 'NONE', ( #621, #173, #132, #221, #10, #58 ) ) ;
#280 = SURFACE_SIDE_STYLE ('',( #624 ) ) ;
#281 = MECHANICAL_DESIGN_GEOMETRIC_PRESENTATION_REPRESENTATION (  '', ( #616 ), #451 ) ;
#282 = ORIENTED_EDGE ( 'NONE', *, *, #450, .F. ) ;
#283 = CARTESIAN_POINT ( 'NONE',  ( 0.000000000000000000, 0.000000000000000000, -5.749999999999998224 ) ) ;
#284 = CARTESIAN_POINT ( 'NONE',  ( -7.375000000000001776, 2.000000000000000000, -7.249999999999999112 ) ) ;
#285 = ORIENTED_EDGE ( 'NONE', *, *, #272, .F. ) ;
#286 = UNCERTAINTY_MEASURE_WITH_UNIT (LENGTH_MEASURE( 1.000000000000000082E-05 ), #524, 'distance_accuracy_value', 'NONE');
#287 = PRODUCT_DEFINITION_SHAPE ( 'NONE', 'NONE',  #120 ) ;
#288 = CARTESIAN_POINT ( 'NONE',  ( -7.375000000000001776, 2.000000000000000000, 6.250000000000001776 ) ) ;
#289 = CYLINDRICAL_SURFACE ( 'NONE', #139, 6.195312499999980460 ) ;
#290 = SURFACE_STYLE_FILL_AREA ( #634 ) ;
#291 = CARTESIAN_POINT ( 'NONE',  ( -7.375000000000001776, 2.000000000000000000, -7.249999999999999112 ) ) ;
#292 = PLANE ( 'NONE',  #5 ) ;
#293 = CIRCLE ( 'NONE', #411, 6.195312499999978684 ) ;
#294 = CARTESIAN_POINT ( 'NONE',  ( -7.375000000000001776, 0.000000000000000000, 6.250000000000001776 ) ) ;
#295 = EDGE_CURVE ( 'NONE', #335, #219, #627, .T. ) ;
#296 = SURFACE_STYLE_FILL_AREA ( #79 ) ;
#297 = CARTESIAN_POINT ( 'NONE',  ( 7.374999999999997335, 2.000000000000000000, -7.249999999999999112 ) ) ;
#298 = DIRECTION ( 'NONE',  ( 1.000000000000000000, -0.000000000000000000, -0.000000000000000000 ) ) ;
#299 = PRODUCT ( 'sd', 'sd', '', ( #51 ) ) ;
#300 = PRESENTATION_LAYER_ASSIGNMENT (  '', '', ( #211 ) ) ;
#301 = SURFACE_STYLE_FILL_AREA ( #455 ) ;
#302 = PLANE ( 'NONE',  #436 ) ;
#303 = DIRECTION ( 'NONE',  ( 1.000000000000000000, 0.000000000000000000, 0.000000000000000000 ) ) ;
#304 =( NAMED_UNIT ( * ) PLANE_ANGLE_UNIT ( ) SI_UNIT ( $, .RADIAN. ) );
#305 = SURFACE_STYLE_USAGE ( .BOTH. , #412 ) ;
#306 = LINE ( 'NONE', #392, #144 ) ;
#307 = ORIENTED_EDGE ( 'NONE', *, *, #106, .F. ) ;
#308 =( NAMED_UNIT ( * ) PLANE_ANGLE_UNIT ( ) SI_UNIT ( $, .RADIAN. ) );
#309 = AXIS2_PLACEMENT_3D ( 'NONE', #192, #303, #398 ) ;
#310 =( NAMED_UNIT ( * ) PLANE_ANGLE_UNIT ( ) SI_UNIT ( $, .RADIAN. ) );
#311 = LINE ( 'NONE', #507, #585 ) ;
#312 = PRESENTATION_LAYER_ASSIGNMENT (  '', '', ( #636 ) ) ;
#313 = ADVANCED_FACE ( 'NONE', ( #226 ), #425, .F. ) ;
#314 = CARTESIAN_POINT ( 'NONE',  ( 6.874999999999998224, 0.5000000000000013323, 7.250000000000000888 ) ) ;
#315 = ORIENTED_EDGE ( 'NONE', *, *, #106, .T. ) ;
#316 = COLOUR_RGB ( '',0.8980392156862745390, 0.9176470588235293713, 0.9294117647058823817 ) ;
#317 = PLANE ( 'NONE',  #646 ) ;
#318 =( LENGTH_UNIT ( ) NAMED_UNIT ( * ) SI_UNIT ( .MILLI., .METRE. ) );
#319 = VECTOR ( 'NONE', #484, 1000.000000000000000 ) ;
#320 = ORIENTED_EDGE ( 'NONE', *, *, #152, .T. ) ;
#321 = CARTESIAN_POINT ( 'NONE',  ( 7.374999999999997335, 2.000000000000000000, -7.249999999999999112 ) ) ;
#322 = ORIENTED_EDGE ( 'NONE', *, *, #613, .T. ) ;
#323 = CARTESIAN_POINT ( 'NONE',  ( 6.874999999999998224, 1.500000000000001332, -5.749999999999998224 ) ) ;
#324 = FILL_AREA_STYLE ('',( #569 ) ) ;
#325 = ORIENTED_EDGE ( 'NONE', *, *, #8, .T. ) ;
#326 = AXIS2_PLACEMENT_3D ( 'NONE', #37, #499, #40 ) ;
#327 =( LENGTH_UNIT ( ) NAMED_UNIT ( * ) SI_UNIT ( .MILLI., .METRE. ) );
#328 =( GEOMETRIC_REPRESENTATION_CONTEXT ( 3 ) GLOBAL_UNCERTAINTY_ASSIGNED_CONTEXT ( ( #527 ) ) GLOBAL_UNIT_ASSIGNED_CONTEXT ( ( #218, #304, #354 ) ) REPRESENTATION_CONTEXT ( 'NONE', 'WORKASPACE' ) );
#329 = ORIENTED_EDGE ( 'NONE', *, *, #523, .T. ) ;
#330 = UNCERTAINTY_MEASURE_WITH_UNIT (LENGTH_MEASURE( 1.000000000000000082E-05 ), #238, 'distance_accuracy_value', 'NONE');
#331 = COLOUR_RGB ( '',0.8980392156862745390, 0.9176470588235293713, 0.9294117647058823817 ) ;
#332 = EDGE_CURVE ( 'NONE', #366, #432, #598, .T. ) ;
#333 = CARTESIAN_POINT ( 'NONE',  ( 1.000000000000001998, 1.500000000000001332, 6.250000000000000000 ) ) ;
#334 = STYLED_ITEM ( 'NONE', ( #402 ), #172 ) ;
#335 = VERTEX_POINT ( 'NONE', #346 ) ;
#336 = CARTESIAN_POINT ( 'NONE',  ( -7.375000000000001776, 0.000000000000000000, -7.249999999999999112 ) ) ;
#337 = FILL_AREA_STYLE ('',( #248 ) ) ;
#338 = ORIENTED_EDGE ( 'NONE', *, *, #23, .T. ) ;
#339 = SURFACE_STYLE_USAGE ( .BOTH. , #71 ) ;
#340 = VECTOR ( 'NONE', #125, 1000.000000000000000 ) ;
#341 =( LENGTH_UNIT ( ) NAMED_UNIT ( * ) SI_UNIT ( .MILLI., .METRE. ) );
#342 = FILL_AREA_STYLE ('',( #145 ) ) ;
#343 = PRESENTATION_STYLE_ASSIGNMENT (( #482 ) ) ;
#344 =( LENGTH_UNIT ( ) NAMED_UNIT ( * ) SI_UNIT ( .MILLI., .METRE. ) );
#345 = DIRECTION ( 'NONE',  ( -1.000000000000000000, 0.000000000000000000, 2.071311613106634906E-16 ) ) ;
#346 = CARTESIAN_POINT ( 'NONE',  ( 1.000000000000001998, 0.000000000000000000, 6.250000000000000000 ) ) ;
#347 = VERTEX_POINT ( 'NONE', #642 ) ;
#348 = CARTESIAN_POINT ( 'NONE',  ( 6.874999999999998224, 1.500000000000001332, 7.250000000000000888 ) ) ;
#349 = ADVANCED_FACE ( 'NONE', ( #239 ), #302, .F. ) ;
#350 = VECTOR ( 'NONE', #345, 1000.000000000000000 ) ;
#351 = CARTESIAN_POINT ( 'NONE',  ( 6.874999999999998224, 0.5000000000000013323, 7.250000000000000888 ) ) ;
#352 = VECTOR ( 'NONE', #611, 1000.000000000000000 ) ;
#353 = STYLED_ITEM ( 'NONE', ( #431 ), #313 ) ;
#354 =( NAMED_UNIT ( * ) SI_UNIT ( $, .STERADIAN. ) SOLID_ANGLE_UNIT ( ) );
#355 = CARTESIAN_POINT ( 'NONE',  ( 7.374999999999997335, 0.000000000000000000, -7.249999999999999112 ) ) ;
#356 = ADVANCED_FACE ( 'NONE', ( #388 ), #183, .F. ) ;
#357 = CARTESIAN_POINT ( 'NONE',  ( 6.874999999999998224, 0.5000000000000013323, -5.749999999999998224 ) ) ;
#358 =( NAMED_UNIT ( * ) SI_UNIT ( $, .STERADIAN. ) SOLID_ANGLE_UNIT ( ) );
#359 = SURFACE_STYLE_USAGE ( .BOTH. , #97 ) ;
#360 = EDGE_CURVE ( 'NONE', #61, #628, #73, .T. ) ;
#361 =( NAMED_UNIT ( * ) PLANE_ANGLE_UNIT ( ) SI_UNIT ( $, .RADIAN. ) );
#362 = DIRECTION ( 'NONE',  ( 0.000000000000000000, 0.000000000000000000, 1.000000000000000000 ) ) ;
#363 = CARTESIAN_POINT ( 'NONE',  ( 7.374999999999997335, 2.000000000000000000, -7.249999999999999112 ) ) ;
#364 = ORIENTED_EDGE ( 'NONE', *, *, #426, .F. ) ;
#365 = AXIS2_PLACEMENT_3D ( 'NONE', #203, #64, #362 ) ;
#366 = VERTEX_POINT ( 'NONE', #381 ) ;
#367 =( LENGTH_UNIT ( ) NAMED_UNIT ( * ) SI_UNIT ( .MILLI., .METRE. ) );
#368 = ORIENTED_EDGE ( 'NONE', *, *, #67, .T. ) ;
#369 = FILL_AREA_STYLE_COLOUR ( '', #640 ) ;
#370 = VERTEX_POINT ( 'NONE', #256 ) ;
#371 = ADVANCED_FACE ( 'NONE', ( #13 ), #222, .F. ) ;
#372 = CARTESIAN_POINT ( 'NONE',  ( 4.374999999999998224, 1.500000000000001332, 7.250000000000000888 ) ) ;
#373 = ORIENTED_EDGE ( 'NONE', *, *, #154, .T. ) ;
#374 =( NAMED_UNIT ( * ) PLANE_ANGLE_UNIT ( ) SI_UNIT ( $, .RADIAN. ) );
#375 = PRESENTATION_LAYER_ASSIGNMENT (  '', '', ( #3 ) ) ;
#376 = CARTESIAN_POINT ( 'NONE',  ( -7.375000000000001776, 0.000000000000000000, 6.250000000000001776 ) ) ;
#377 = STYLED_ITEM ( 'NONE', ( #491 ), #55 ) ;
#378 = VECTOR ( 'NONE', #473, 1000.000000000000000 ) ;
#379 = EDGE_LOOP ( 'NONE', ( #259, #177, #322, #587, #149, #117 ) ) ;
#380 = ADVANCED_FACE ( 'NONE', ( #660 ), #317, .F. ) ;
#381 = CARTESIAN_POINT ( 'NONE',  ( -6.875000000000000888, 0.5000000000000013323, -5.749999999999998224 ) ) ;
#382 = ORIENTED_EDGE ( 'NONE', *, *, #654, .F. ) ;
#383 = UNCERTAINTY_MEASURE_WITH_UNIT (LENGTH_MEASURE( 1.000000000000000082E-05 ), #635, 'distance_accuracy_value', 'NONE');
#384 = PRESENTATION_STYLE_ASSIGNMENT (( #339 ) ) ;
#385 = AXIS2_PLACEMENT_3D ( 'NONE', #255, #94, #205 ) ;
#386 = SURFACE_SIDE_STYLE ('',( #442 ) ) ;
#387 = LINE ( 'NONE', #294, #629 ) ;
#388 = FACE_OUTER_BOUND ( 'NONE', #529, .T. ) ;
#389 =( LENGTH_UNIT ( ) NAMED_UNIT ( * ) SI_UNIT ( .MILLI., .METRE. ) );
#390 =( GEOMETRIC_REPRESENTATION_CONTEXT ( 3 ) GLOBAL_UNCERTAINTY_ASSIGNED_CONTEXT ( ( #233 ) ) GLOBAL_UNIT_ASSIGNED_CONTEXT ( ( #318, #268, #217 ) ) REPRESENTATION_CONTEXT ( 'NONE', 'WORKASPACE' ) );
#391 = VECTOR ( 'NONE', #135, 1000.000000000000000 ) ;
#392 = CARTESIAN_POINT ( 'NONE',  ( -7.375000000000000888, 2.000000000000000000, 7.250000000000000888 ) ) ;
#393 = CARTESIAN_POINT ( 'NONE',  ( -6.875000000000000000, 1.500000000000001332, 6.250000000000001776 ) ) ;
#394 = SURFACE_STYLE_USAGE ( .BOTH. , #43 ) ;
#395 = ADVANCED_FACE ( 'NONE', ( #147 ), #607, .F. ) ;
#396 = LINE ( 'NONE', #138, #350 ) ;
#397 = SURFACE_SIDE_STYLE ('',( #116 ) ) ;
#398 = DIRECTION ( 'NONE',  ( 0.000000000000000000, 0.000000000000000000, -1.000000000000000000 ) ) ;
#399 = COLOUR_RGB ( '',0.8980392156862745390, 0.9176470588235293713, 0.9294117647058823817 ) ;
#400 = DIRECTION ( 'NONE',  ( 0.000000000000000000, -0.000000000000000000, 1.000000000000000000 ) ) ;
#401 = EDGE_CURVE ( 'NONE', #435, #427, #129, .T. ) ;
#402 = PRESENTATION_STYLE_ASSIGNMENT (( #305 ) ) ;
#403 = DIRECTION ( 'NONE',  ( 0.000000000000000000, 0.000000000000000000, 1.000000000000000000 ) ) ;
#404 = CARTESIAN_POINT ( 'NONE',  ( 7.374999999999999112, 2.000000000000000000, 7.250000000000000888 ) ) ;
#405 =( GEOMETRIC_REPRESENTATION_CONTEXT ( 3 ) GLOBAL_UNCERTAINTY_ASSIGNED_CONTEXT ( ( #83 ) ) GLOBAL_UNIT_ASSIGNED_CONTEXT ( ( #564, #164, #358 ) ) REPRESENTATION_CONTEXT ( 'NONE', 'WORKASPACE' ) );
#406 = VECTOR ( 'NONE', #582, 1000.000000000000000 ) ;
#407 = FILL_AREA_STYLE ('',( #511 ) ) ;
#408 = DIRECTION ( 'NONE',  ( 1.000000000000000000, 0.000000000000000000, -2.071311613106634906E-16 ) ) ;
#409 = DIRECTION ( 'NONE',  ( 1.196361017915039486E-16, 0.000000000000000000, 1.000000000000000000 ) ) ;
#410 = PRESENTATION_LAYER_ASSIGNMENT (  '', '', ( #44 ) ) ;
#411 = AXIS2_PLACEMENT_3D ( 'NONE', #187, #603, #485 ) ;
#412 = SURFACE_SIDE_STYLE ('',( #261 ) ) ;
#413 = LINE ( 'NONE', #170, #420 ) ;
#414 = ORIENTED_EDGE ( 'NONE', *, *, #213, .T. ) ;
#415 = CARTESIAN_POINT ( 'NONE',  ( -6.875000000000000000, 1.500000000000001332, -5.749999999999998224 ) ) ;
#416 = ORIENTED_EDGE ( 'NONE', *, *, #514, .T. ) ;
#417 = LINE ( 'NONE', #101, #19 ) ;
#418 = FILL_AREA_STYLE ('',( #273 ) ) ;
#419 = SURFACE_STYLE_FILL_AREA ( #324 ) ;
#420 = VECTOR ( 'NONE', #210, 1000.000000000000000 ) ;
#421 = ORIENTED_EDGE ( 'NONE', *, *, #266, .T. ) ;
#422 = COLOUR_RGB ( '',0.8980392156862745390, 0.9176470588235293713, 0.9294117647058823817 ) ;
#423 = DIRECTION ( 'NONE',  ( 0.000000000000000000, 1.000000000000000000, 0.000000000000000000 ) ) ;
#424 = COLOUR_RGB ( '',0.8980392156862745390, 0.9176470588235293713, 0.9294117647058823817 ) ;
#425 = PLANE ( 'NONE',  #249 ) ;
#426 = EDGE_CURVE ( 'NONE', #538, #498, #18, .T. ) ;
#427 = VERTEX_POINT ( 'NONE', #28 ) ;
#428 = UNCERTAINTY_MEASURE_WITH_UNIT (LENGTH_MEASURE( 1.000000000000000082E-05 ), #367, 'distance_accuracy_value', 'NONE');
#429 = STYLED_ITEM ( 'NONE', ( #343 ), #494 ) ;
#430 =( NAMED_UNIT ( * ) PLANE_ANGLE_UNIT ( ) SI_UNIT ( $, .RADIAN. ) );
#431 = PRESENTATION_STYLE_ASSIGNMENT (( #477 ) ) ;
#432 = VERTEX_POINT ( 'NONE', #475 ) ;
#433 = VECTOR ( 'NONE', #492, 1000.000000000000000 ) ;
#434 = CARTESIAN_POINT ( 'NONE',  ( -7.375000000000000888, 0.000000000000000000, 7.250000000000000888 ) ) ;
#435 = VERTEX_POINT ( 'NONE', #372 ) ;
#436 = AXIS2_PLACEMENT_3D ( 'NONE', #291, #444, #542 ) ;
#437 = SURFACE_STYLE_USAGE ( .BOTH. , #189 ) ;
#438 = PRESENTATION_LAYER_ASSIGNMENT (  '', '', ( #60 ) ) ;
#439 = PRESENTATION_LAYER_ASSIGNMENT (  '', '', ( #353 ) ) ;
#440 = LINE ( 'NONE', #641, #114 ) ;
#441 = FILL_AREA_STYLE_COLOUR ( '', #493 ) ;
#442 = SURFACE_STYLE_FILL_AREA ( #342 ) ;
#443 = MECHANICAL_DESIGN_GEOMETRIC_PRESENTATION_REPRESENTATION (  '', ( #483 ), #328 ) ;
#444 = DIRECTION ( 'NONE',  ( 0.000000000000000000, 0.000000000000000000, 1.000000000000000000 ) ) ;
#445 = ORIENTED_EDGE ( 'NONE', *, *, #244, .T. ) ;
#446 = LINE ( 'NONE', #348, #15 ) ;
#447 =( GEOMETRIC_REPRESENTATION_CONTEXT ( 3 ) GLOBAL_UNCERTAINTY_ASSIGNED_CONTEXT ( ( #539 ) ) GLOBAL_UNIT_ASSIGNED_CONTEXT ( ( #650, #549, #75 ) ) REPRESENTATION_CONTEXT ( 'NONE', 'WORKASPACE' ) );
#448 = PRESENTATION_STYLE_ASSIGNMENT (( #437 ) ) ;
#449 =( NAMED_UNIT ( * ) PLANE_ANGLE_UNIT ( ) SI_UNIT ( $, .RADIAN. ) );
#450 = EDGE_CURVE ( 'NONE', #169, #370, #133, .T. ) ;
#451 =( GEOMETRIC_REPRESENTATION_CONTEXT ( 3 ) GLOBAL_UNCERTAINTY_ASSIGNED_CONTEXT ( ( #128 ) ) GLOBAL_UNIT_ASSIGNED_CONTEXT ( ( #344, #449, #246 ) ) REPRESENTATION_CONTEXT ( 'NONE', 'WORKASPACE' ) );
#452 = LINE ( 'NONE', #393, #576 ) ;
#453 = CARTESIAN_POINT ( 'NONE',  ( -7.375000000000001776, 0.000000000000000000, -7.249999999999999112 ) ) ;
#454 = VECTOR ( 'NONE', #470, 1000.000000000000000 ) ;
#455 = FILL_AREA_STYLE ('',( #258 ) ) ;
#456 = PRESENTATION_STYLE_ASSIGNMENT (( #359 ) ) ;
#457 =( NAMED_UNIT ( * ) SI_UNIT ( $, .STERADIAN. ) SOLID_ANGLE_UNIT ( ) );
#458 = DIRECTION ( 'NONE',  ( -1.196361017915039732E-16, 0.000000000000000000, -1.000000000000000000 ) ) ;
#459 =( NAMED_UNIT ( * ) PLANE_ANGLE_UNIT ( ) SI_UNIT ( $, .RADIAN. ) );
#460 = APPLICATION_PROTOCOL_DEFINITION ( 'draft international standard', 'automotive_design', 1998, #157 ) ;
#461 = ADVANCED_FACE ( 'NONE', ( #229 ), #174, .F. ) ;
#462 = CARTESIAN_POINT ( 'NONE',  ( 1.000000000000001998, 2.000000000000000000, 6.250000000000000000 ) ) ;
#463 = MECHANICAL_DESIGN_GEOMETRIC_PRESENTATION_REPRESENTATION (  '', ( #3 ), #605 ) ;
#464 = VECTOR ( 'NONE', #559, 1000.000000000000000 ) ;
#465 = ORIENTED_EDGE ( 'NONE', *, *, #523, .F. ) ;
#466 = ORIENTED_EDGE ( 'NONE', *, *, #332, .T. ) ;
#467 =( NAMED_UNIT ( * ) SI_UNIT ( $, .STERADIAN. ) SOLID_ANGLE_UNIT ( ) );
#468 = ORIENTED_EDGE ( 'NONE', *, *, #32, .F. ) ;
#469 = EDGE_LOOP ( 'NONE', ( #520, #368, #625, #127 ) ) ;
#470 = DIRECTION ( 'NONE',  ( -0.000000000000000000, 1.000000000000000000, -0.000000000000000000 ) ) ;
#471 = ORIENTED_EDGE ( 'NONE', *, *, #194, .F. ) ;
#472 = EDGE_CURVE ( 'NONE', #274, #24, #234, .T. ) ;
#473 = DIRECTION ( 'NONE',  ( -1.000000000000000000, 0.000000000000000000, 0.000000000000000000 ) ) ;
#474 = ORIENTED_EDGE ( 'NONE', *, *, #253, .F. ) ;
#475 = CARTESIAN_POINT ( 'NONE',  ( -6.875000000000000888, 0.5000000000000013323, 6.250000000000000888 ) ) ;
#476 = CLOSED_SHELL ( 'NONE', ( #313, #349, #618, #494, #202, #395, #6, #380, #502, #172, #461, #356, #371, #55 ) ) ;
#477 = SURFACE_STYLE_USAGE ( .BOTH. , #280 ) ;
#478 = ORIENTED_EDGE ( 'NONE', *, *, #56, .F. ) ;
#479 = UNCERTAINTY_MEASURE_WITH_UNIT (LENGTH_MEASURE( 1.000000000000000082E-05 ), #195, 'distance_accuracy_value', 'NONE');
#480 = SURFACE_SIDE_STYLE ('',( #419 ) ) ;
#481 = EDGE_LOOP ( 'NONE', ( #581, #329, #471, #637 ) ) ;
#482 = SURFACE_STYLE_USAGE ( .BOTH. , #584 ) ;
#483 = STYLED_ITEM ( 'NONE', ( #57 ), #395 ) ;
#484 = DIRECTION ( 'NONE',  ( -1.000000000000000000, -0.000000000000000000, 2.071311613106634413E-16 ) ) ;
#485 = DIRECTION ( 'NONE',  ( 0.000000000000000000, 0.000000000000000000, -1.000000000000000000 ) ) ;
#486 = DIRECTION ( 'NONE',  ( -1.000000000000000000, 0.000000000000000000, 1.196361017915039732E-16 ) ) ;
#487 = PRESENTATION_LAYER_ASSIGNMENT (  '', '', ( #334 ) ) ;
#488 = DIRECTION ( 'NONE',  ( -1.000000000000000000, 8.673617379884037444E-16, 0.000000000000000000 ) ) ;
#489 = CARTESIAN_POINT ( 'NONE',  ( -6.875000000000000000, 1.500000000000001332, -5.749999999999998224 ) ) ;
#490 = SURFACE_SIDE_STYLE ('',( #296 ) ) ;
#491 = PRESENTATION_STYLE_ASSIGNMENT (( #42 ) ) ;
#492 = DIRECTION ( 'NONE',  ( -8.673617379884035472E-16, -1.000000000000000000, 0.000000000000000000 ) ) ;
#493 = COLOUR_RGB ( '',0.8980392156862745390, 0.9176470588235293713, 0.9294117647058823817 ) ;
#494 = ADVANCED_FACE ( 'NONE', ( #121 ), #77, .F. ) ;
#495 = FILL_AREA_STYLE_COLOUR ( '', #638 ) ;
#496 = DIRECTION ( 'NONE',  ( -0.000000000000000000, 1.000000000000000000, -0.000000000000000000 ) ) ;
#497 = FILL_AREA_STYLE_COLOUR ( '', #230 ) ;
#498 = VERTEX_POINT ( 'NONE', #453 ) ;
#499 = DIRECTION ( 'NONE',  ( 0.000000000000000000, 1.000000000000000000, 0.000000000000000000 ) ) ;
#500 = FILL_AREA_STYLE ('',( #166 ) ) ;
#501 = LINE ( 'NONE', #162, #352 ) ;
#502 = ADVANCED_FACE ( 'NONE', ( #645 ), #90, .F. ) ;
#503 = EDGE_CURVE ( 'NONE', #435, #265, #560, .T. ) ;
#504 = ORIENTED_EDGE ( 'NONE', *, *, #181, .F. ) ;
#505 = CARTESIAN_POINT ( 'NONE',  ( 1.000000000000003331, 0.000000000000000000, 12.44531249999997868 ) ) ;
#506 = PRESENTATION_LAYER_ASSIGNMENT (  '', '', ( #530 ) ) ;
#507 = CARTESIAN_POINT ( 'NONE',  ( 6.875000000000000888, 0.5000000000000013323, 6.249999999999998224 ) ) ;
#508 =( GEOMETRIC_REPRESENTATION_CONTEXT ( 3 ) GLOBAL_UNCERTAINTY_ASSIGNED_CONTEXT ( ( #428 ) ) GLOBAL_UNIT_ASSIGNED_CONTEXT ( ( #367, #577, #168 ) ) REPRESENTATION_CONTEXT ( 'NONE', 'WORKASPACE' ) );
#509 = VECTOR ( 'NONE', #620, 1000.000000000000000 ) ;
#510 = AXIS2_PLACEMENT_3D ( 'NONE', #243, #604, #548 ) ;
#511 = FILL_AREA_STYLE_COLOUR ( '', #78 ) ;
#512 = EDGE_LOOP ( 'NONE', ( #445, #619, #571, #167 ) ) ;
#513 = CIRCLE ( 'NONE', #385, 6.195312499999978684 ) ;
#514 = EDGE_CURVE ( 'NONE', #225, #347, #556, .T. ) ;
#515 = CARTESIAN_POINT ( 'NONE',  ( -6.875000000000000000, 1.500000000000001332, -5.749999999999998224 ) ) ;
#516 = MECHANICAL_DESIGN_GEOMETRIC_PRESENTATION_REPRESENTATION (  '', ( #211 ), #95 ) ;
#517 = ORIENTED_EDGE ( 'NONE', *, *, #213, .F. ) ;
#518 = LINE ( 'NONE', #110, #140 ) ;
#519 = SURFACE_STYLE_USAGE ( .BOTH. , #397 ) ;
#520 = ORIENTED_EDGE ( 'NONE', *, *, #401, .T. ) ;
#521 = CARTESIAN_POINT ( 'NONE',  ( -7.375000000000001776, 0.000000000000000000, 6.250000000000001776 ) ) ;
#522 = ORIENTED_EDGE ( 'NONE', *, *, #87, .F. ) ;
#523 = EDGE_CURVE ( 'NONE', #219, #628, #387, .T. ) ;
#524 =( LENGTH_UNIT ( ) NAMED_UNIT ( * ) SI_UNIT ( .MILLI., .METRE. ) );
#525 = DIRECTION ( 'NONE',  ( 0.000000000000000000, 1.000000000000000000, 0.000000000000000000 ) ) ;
#526 = ORIENTED_EDGE ( 'NONE', *, *, #450, .T. ) ;
#527 = UNCERTAINTY_MEASURE_WITH_UNIT (LENGTH_MEASURE( 1.000000000000000082E-05 ), #218, 'distance_accuracy_value', 'NONE');
#528 = CARTESIAN_POINT ( 'NONE',  ( 4.374999999999997335, 0.5000000000000013323, 7.250000000000000888 ) ) ;
#529 = EDGE_LOOP ( 'NONE', ( #373, #656, #465, #664, #228, #21, #468, #69 ) ) ;
#530 = STYLED_ITEM ( 'NONE', ( #456 ), #371 ) ;
#531 = VECTOR ( 'NONE', #553, 1000.000000000000000 ) ;
#532 = ORIENTED_EDGE ( 'NONE', *, *, #272, .T. ) ;
#533 = COLOUR_RGB ( '',0.8980392156862745390, 0.9176470588235293713, 0.9294117647058823817 ) ;
#534 = CARTESIAN_POINT ( 'NONE',  ( 0.000000000000000000, 0.000000000000000000, 0.000000000000000000 ) ) ;
#535 = VERTEX_POINT ( 'NONE', #156 ) ;
#536 =( NAMED_UNIT ( * ) SI_UNIT ( $, .STERADIAN. ) SOLID_ANGLE_UNIT ( ) );
#537 =( GEOMETRIC_REPRESENTATION_CONTEXT ( 3 ) GLOBAL_UNCERTAINTY_ASSIGNED_CONTEXT ( ( #191 ) ) GLOBAL_UNIT_ASSIGNED_CONTEXT ( ( #623, #568, #467 ) ) REPRESENTATION_CONTEXT ( 'NONE', 'WORKASPACE' ) );
#538 = VERTEX_POINT ( 'NONE', #201 ) ;
#539 = UNCERTAINTY_MEASURE_WITH_UNIT (LENGTH_MEASURE( 1.000000000000000082E-05 ), #650, 'distance_accuracy_value', 'NONE');
#540 = PRESENTATION_LAYER_ASSIGNMENT (  '', '', ( #659 ) ) ;
#541 = CARTESIAN_POINT ( 'NONE',  ( 6.874999999999998224, 1.500000000000001332, 7.250000000000000888 ) ) ;
#542 = DIRECTION ( 'NONE',  ( 1.000000000000000000, 0.000000000000000000, -0.000000000000000000 ) ) ;
#543 = PRESENTATION_LAYER_ASSIGNMENT (  '', '', ( #377 ) ) ;
#544 = CARTESIAN_POINT ( 'NONE',  ( -7.375000000000001776, 2.000000000000000000, -7.249999999999999112 ) ) ;
#545 = LINE ( 'NONE', #489, #433 ) ;
#546 = EDGE_CURVE ( 'NONE', #370, #435, #446, .T. ) ;
#547 = EDGE_LOOP ( 'NONE', ( #526, #72, #579, #107 ) ) ;
#548 = DIRECTION ( 'NONE',  ( -1.000000000000000000, 0.000000000000000000, -0.000000000000000000 ) ) ;
#549 =( NAMED_UNIT ( * ) PLANE_ANGLE_UNIT ( ) SI_UNIT ( $, .RADIAN. ) );
#550 = SURFACE_SIDE_STYLE ('',( #593 ) ) ;
#551 =( GEOMETRIC_REPRESENTATION_CONTEXT ( 3 ) GLOBAL_UNCERTAINTY_ASSIGNED_CONTEXT ( ( #383 ) ) GLOBAL_UNIT_ASSIGNED_CONTEXT ( ( #635, #361, #590 ) ) REPRESENTATION_CONTEXT ( 'NONE', 'WORKASPACE' ) );
#552 = DIRECTION ( 'NONE',  ( 0.000000000000000000, 1.000000000000000000, 0.000000000000000000 ) ) ;
#553 = DIRECTION ( 'NONE',  ( -0.000000000000000000, 1.000000000000000000, -0.000000000000000000 ) ) ;
#554 = VECTOR ( 'NONE', #606, 1000.000000000000000 ) ;
#555 = VECTOR ( 'NONE', #62, 1000.000000000000000 ) ;
#556 = LINE ( 'NONE', #82, #267 ) ;
#557 = EDGE_LOOP ( 'NONE', ( #52, #583, #416, #421 ) ) ;
#558 = AXIS2_PLACEMENT_3D ( 'NONE', #283, #33, #241 ) ;
#559 = DIRECTION ( 'NONE',  ( -0.000000000000000000, -0.000000000000000000, 1.000000000000000000 ) ) ;
#560 = CIRCLE ( 'NONE', #326, 6.195312499999980460 ) ;
#561 =( NAMED_UNIT ( * ) SI_UNIT ( $, .STERADIAN. ) SOLID_ANGLE_UNIT ( ) );
#562 = EDGE_LOOP ( 'NONE', ( #315, #285, #474, #414 ) ) ;
#563 = CARTESIAN_POINT ( 'NONE',  ( 1.000000000000003331, 2.000000000000000000, 12.44531249999997868 ) ) ;
#564 =( LENGTH_UNIT ( ) NAMED_UNIT ( * ) SI_UNIT ( .MILLI., .METRE. ) );
#565 = EDGE_CURVE ( 'NONE', #535, #232, #513, .T. ) ;
#566 = LINE ( 'NONE', #215, #531 ) ;
#567 = CARTESIAN_POINT ( 'NONE',  ( -7.375000000000001776, 2.000000000000000000, -7.249999999999999112 ) ) ;
#568 =( NAMED_UNIT ( * ) PLANE_ANGLE_UNIT ( ) SI_UNIT ( $, .RADIAN. ) );
#569 = FILL_AREA_STYLE_COLOUR ( '', #207 ) ;
#570 = SURFACE_STYLE_USAGE ( .BOTH. , #9 ) ;
#571 = ORIENTED_EDGE ( 'NONE', *, *, #332, .F. ) ;
#572 =( GEOMETRIC_REPRESENTATION_CONTEXT ( 3 ) GLOBAL_UNCERTAINTY_ASSIGNED_CONTEXT ( ( #286 ) ) GLOBAL_UNIT_ASSIGNED_CONTEXT ( ( #524, #308, #260 ) ) REPRESENTATION_CONTEXT ( 'NONE', 'WORKASPACE' ) );
#573 = DIRECTION ( 'NONE',  ( -1.196361017915039486E-16, -0.000000000000000000, -1.000000000000000000 ) ) ;
#574 = EDGE_CURVE ( 'NONE', #265, #184, #396, .T. ) ;
#575 = ORIENTED_EDGE ( 'NONE', *, *, #472, .T. ) ;
#576 = VECTOR ( 'NONE', #89, 1000.000000000000000 ) ;
#577 =( NAMED_UNIT ( * ) PLANE_ANGLE_UNIT ( ) SI_UNIT ( $, .RADIAN. ) );
#578 = MECHANICAL_DESIGN_GEOMETRIC_PRESENTATION_REPRESENTATION (  '', ( #597 ), #610 ) ;
#579 = ORIENTED_EDGE ( 'NONE', *, *, #514, .F. ) ;
#580 = FILL_AREA_STYLE ('',( #369 ) ) ;
#581 = ORIENTED_EDGE ( 'NONE', *, *, #633, .T. ) ;
#582 = DIRECTION ( 'NONE',  ( -0.000000000000000000, 1.000000000000000000, -0.000000000000000000 ) ) ;
#583 = ORIENTED_EDGE ( 'NONE', *, *, #654, .T. ) ;
#584 = SURFACE_SIDE_STYLE ('',( #136 ) ) ;
#585 = VECTOR ( 'NONE', #408, 1000.000000000000000 ) ;
#586 = DIRECTION ( 'NONE',  ( -2.071311613106634660E-16, 0.000000000000000000, -1.000000000000000000 ) ) ;
#587 = ORIENTED_EDGE ( 'NONE', *, *, #253, .T. ) ;
#588 = LINE ( 'NONE', #35, #391 ) ;
#589 = DIRECTION ( 'NONE',  ( 1.000000000000000000, 0.000000000000000000, 0.000000000000000000 ) ) ;
#590 =( NAMED_UNIT ( * ) SI_UNIT ( $, .STERADIAN. ) SOLID_ANGLE_UNIT ( ) );
#591 = SURFACE_SIDE_STYLE ('',( #643 ) ) ;
#592 = EDGE_CURVE ( 'NONE', #232, #169, #197, .T. ) ;
#593 = SURFACE_STYLE_FILL_AREA ( #146 ) ;
#594 = DIRECTION ( 'NONE',  ( 1.196361017915039732E-16, 0.000000000000000000, 1.000000000000000000 ) ) ;
#595 = ORIENTED_EDGE ( 'NONE', *, *, #295, .T. ) ;
#596 = DIRECTION ( 'NONE',  ( 1.000000000000000000, 0.000000000000000000, 0.000000000000000000 ) ) ;
#597 = STYLED_ITEM ( 'NONE', ( #142 ), #502 ) ;
#598 = LINE ( 'NONE', #134, #648 ) ;
#599 = PRESENTATION_STYLE_ASSIGNMENT (( #394 ) ) ;
#600 = PRODUCT_DEFINITION_CONTEXT ( 'detailed design', #157, 'design' ) ;
#601 = EDGE_CURVE ( 'NONE', #103, #366, #545, .T. ) ;
#602 = SURFACE_STYLE_FILL_AREA ( #500 ) ;
#603 = DIRECTION ( 'NONE',  ( 0.000000000000000000, 1.000000000000000000, -0.000000000000000000 ) ) ;
#604 = DIRECTION ( 'NONE',  ( 0.000000000000000000, 0.000000000000000000, -1.000000000000000000 ) ) ;
#605 =( GEOMETRIC_REPRESENTATION_CONTEXT ( 3 ) GLOBAL_UNCERTAINTY_ASSIGNED_CONTEXT ( ( #178 ) ) GLOBAL_UNIT_ASSIGNED_CONTEXT ( ( #341, #88, #34 ) ) REPRESENTATION_CONTEXT ( 'NONE', 'WORKASPACE' ) );
#606 = DIRECTION ( 'NONE',  ( -0.000000000000000000, -1.000000000000000000, -0.000000000000000000 ) ) ;
#607 = PLANE ( 'NONE',  #123 ) ;
#608 = LINE ( 'NONE', #284, #639 ) ;
#609 =( LENGTH_UNIT ( ) NAMED_UNIT ( * ) SI_UNIT ( .MILLI., .METRE. ) );
#610 =( GEOMETRIC_REPRESENTATION_CONTEXT ( 3 ) GLOBAL_UNCERTAINTY_ASSIGNED_CONTEXT ( ( #479 ) ) GLOBAL_UNIT_ASSIGNED_CONTEXT ( ( #195, #657, #251 ) ) REPRESENTATION_CONTEXT ( 'NONE', 'WORKASPACE' ) );
#611 = DIRECTION ( 'NONE',  ( -1.000000000000000000, -0.000000000000000000, -0.000000000000000000 ) ) ;
#612 =( NAMED_UNIT ( * ) SI_UNIT ( $, .STERADIAN. ) SOLID_ANGLE_UNIT ( ) );
#613 = EDGE_CURVE ( 'NONE', #427, #66, #306, .T. ) ;
#614 = MECHANICAL_DESIGN_GEOMETRIC_PRESENTATION_REPRESENTATION (  '', ( #530 ), #572 ) ;
#615 = PLANE ( 'NONE',  #270 ) ;
#616 = STYLED_ITEM ( 'NONE', ( #137 ), #6 ) ;
#617 = CARTESIAN_POINT ( 'NONE',  ( 6.874999999999998224, 0.5000000000000013323, -5.749999999999998224 ) ) ;
#618 = ADVANCED_FACE ( 'NONE', ( #658 ), #86, .F. ) ;
#619 = ORIENTED_EDGE ( 'NONE', *, *, #32, .T. ) ;
#620 = DIRECTION ( 'NONE',  ( -0.000000000000000000, -0.000000000000000000, 1.000000000000000000 ) ) ;
#621 = ORIENTED_EDGE ( 'NONE', *, *, #503, .T. ) ;
#622 = SURFACE_STYLE_USAGE ( .BOTH. , #99 ) ;
#623 =( LENGTH_UNIT ( ) NAMED_UNIT ( * ) SI_UNIT ( .MILLI., .METRE. ) );
#624 = SURFACE_STYLE_FILL_AREA ( #580 ) ;
#625 = ORIENTED_EDGE ( 'NONE', *, *, #154, .F. ) ;
#626 = APPLICATION_CONTEXT ( 'automotive_design' ) ;
#627 = LINE ( 'NONE', #521, #555 ) ;
#628 = VERTEX_POINT ( 'NONE', #53 ) ;
#629 = VECTOR ( 'NONE', #46, 1000.000000000000000 ) ;
#630 = ORIENTED_EDGE ( 'NONE', *, *, #401, .F. ) ;
#631 = UNCERTAINTY_MEASURE_WITH_UNIT (LENGTH_MEASURE( 1.000000000000000082E-05 ), #609, 'distance_accuracy_value', 'NONE');
#632 = MANIFOLD_SOLID_BREP ( 'Cut-Extrude2', #476 ) ;
#633 = EDGE_CURVE ( 'NONE', #498, #219, #417, .T. ) ;
#634 = FILL_AREA_STYLE ('',( #441 ) ) ;
#635 =( LENGTH_UNIT ( ) NAMED_UNIT ( * ) SI_UNIT ( .MILLI., .METRE. ) );
#636 = STYLED_ITEM ( 'NONE', ( #245 ), #356 ) ;
#637 = ORIENTED_EDGE ( 'NONE', *, *, #181, .T. ) ;
#638 = COLOUR_RGB ( '',0.8980392156862745390, 0.9176470588235293713, 0.9294117647058823817 ) ;
#639 = VECTOR ( 'NONE', #275, 1000.000000000000000 ) ;
#640 = COLOUR_RGB ( '',0.8980392156862745390, 0.9176470588235293713, 0.9294117647058823817 ) ;
#641 = CARTESIAN_POINT ( 'NONE',  ( 4.374999999999998224, 0.000000000000000000, 7.250000000000000888 ) ) ;
#642 = CARTESIAN_POINT ( 'NONE',  ( 6.874999999999998224, 1.500000000000001332, -5.749999999999998224 ) ) ;
#643 = SURFACE_STYLE_FILL_AREA ( #39 ) ;
#644 = PRESENTATION_LAYER_ASSIGNMENT (  '', '', ( #85 ) ) ;
#645 = FACE_OUTER_BOUND ( 'NONE', #547, .T. ) ;
#646 = AXIS2_PLACEMENT_3D ( 'NONE', #323, #552, #400 ) ;
#647 = CARTESIAN_POINT ( 'NONE',  ( -6.875000000000000000, 1.500000000000001332, -5.749999999999998224 ) ) ;
#648 = VECTOR ( 'NONE', #30, 1000.000000000000000 ) ;
#649 = DIRECTION ( 'NONE',  ( -1.000000000000000000, 0.000000000000000000, 0.000000000000000000 ) ) ;
#650 =( LENGTH_UNIT ( ) NAMED_UNIT ( * ) SI_UNIT ( .MILLI., .METRE. ) );
#651 = PRESENTATION_LAYER_ASSIGNMENT (  '', '', ( #616 ) ) ;
#652 = FACE_OUTER_BOUND ( 'NONE', #180, .T. ) ;
#653 = DIRECTION ( 'NONE',  ( -0.000000000000000000, 1.000000000000000000, -0.000000000000000000 ) ) ;
#654 = EDGE_CURVE ( 'NONE', #366, #225, #413, .T. ) ;
#655 = FILL_AREA_STYLE_COLOUR ( '', #316 ) ;
#656 = ORIENTED_EDGE ( 'NONE', *, *, #360, .T. ) ;
#657 =( NAMED_UNIT ( * ) PLANE_ANGLE_UNIT ( ) SI_UNIT ( $, .RADIAN. ) );
#658 = FACE_OUTER_BOUND ( 'NONE', #481, .T. ) ;
#659 = STYLED_ITEM ( 'NONE', ( #277 ), #380 ) ;
#660 = FACE_OUTER_BOUND ( 'NONE', #279, .T. ) ;
#661 = DIRECTION ( 'NONE',  ( -0.000000000000000000, -0.000000000000000000, 1.000000000000000000 ) ) ;
#662 = CIRCLE ( 'NONE', #216, 6.195312499999978684 ) ;
#663 = SURFACE_STYLE_FILL_AREA ( #407 ) ;
#664 = ORIENTED_EDGE ( 'NONE', *, *, #295, .F. ) ;
#665 =( GEOMETRIC_REPRESENTATION_CONTEXT ( 3 ) GLOBAL_UNCERTAINTY_ASSIGNED_CONTEXT ( ( #70 ) ) GLOBAL_UNIT_ASSIGNED_CONTEXT ( ( #327, #374, #536 ) ) REPRESENTATION_CONTEXT ( 'NONE', 'WORKASPACE' ) );
ENDSEC;
END-ISO-10303-21;
